<svg class="main-svg" xmlns="http://www.w3.org/2000/svg" xmlns:xlink="http://www.w3.org/1999/xlink" width="1938" height="1400" style="" viewBox="0 0 969 700"><rect x="0" y="0" width="969" height="700" style="fill: rgb(255, 255, 255); fill-opacity: 0;"/><defs id="defs-3049b1"><g class="clips"><clipPath id="clip3049b1xyplot" class="plotclip"><rect width="700" height="520"/></clipPath><clipPath class="axesclip" id="clip3049b1x"><rect x="80" y="0" width="700" height="700"/></clipPath><clipPath class="axesclip" id="clip3049b1y"><rect x="0" y="100" width="969" height="520"/></clipPath><clipPath class="axesclip" id="clip3049b1xy"><rect x="80" y="100" width="700" height="520"/></clipPath></g><g class="gradients"/><g class="patterns"/></defs><g class="bglayer"><rect class="bg" x="80" y="100" width="700" height="520" style="fill: rgb(255, 255, 255); fill-opacity: 0; stroke-width: 0;"/></g><g class="layer-below"><g class="imagelayer"/><g class="shapelayer"/></g><g class="cartesianlayer"><g class="subplot xy"><g class="layer-subplot"><g class="shapelayer"/><g class="imagelayer"/></g><g class="minor-gridlayer"><g class="x"/><g class="y"/></g><g class="gridlayer"><g class="x"><path class="xgrid crisp" transform="translate(167.5,0)" d="M0,100v520" style="stroke: rgb(0, 0, 0); stroke-opacity: 0.1; stroke-width: 1px;"/><path class="xgrid crisp" transform="translate(255,0)" d="M0,100v520" style="stroke: rgb(0, 0, 0); stroke-opacity: 0.1; stroke-width: 1px;"/><path class="xgrid crisp" transform="translate(342.5,0)" d="M0,100v520" style="stroke: rgb(0, 0, 0); stroke-opacity: 0.1; stroke-width: 1px;"/><path class="xgrid crisp" transform="translate(430,0)" d="M0,100v520" style="stroke: rgb(0, 0, 0); stroke-opacity: 0.1; stroke-width: 1px;"/><path class="xgrid crisp" transform="translate(517.5,0)" d="M0,100v520" style="stroke: rgb(0, 0, 0); stroke-opacity: 0.1; stroke-width: 1px;"/><path class="xgrid crisp" transform="translate(605,0)" d="M0,100v520" style="stroke: rgb(0, 0, 0); stroke-opacity: 0.1; stroke-width: 1px;"/><path class="xgrid crisp" transform="translate(692.5,0)" d="M0,100v520" style="stroke: rgb(0, 0, 0); stroke-opacity: 0.1; stroke-width: 1px;"/></g><g class="y"><path class="ygrid crisp" transform="translate(0,594.4300000000001)" d="M80,0h700" style="stroke: rgb(0, 0, 0); stroke-opacity: 0.1; stroke-width: 1px;"/><path class="ygrid crisp" transform="translate(0,506.28)" d="M80,0h700" style="stroke: rgb(0, 0, 0); stroke-opacity: 0.1; stroke-width: 1px;"/><path class="ygrid crisp" transform="translate(0,418.13)" d="M80,0h700" style="stroke: rgb(0, 0, 0); stroke-opacity: 0.1; stroke-width: 1px;"/><path class="ygrid crisp" transform="translate(0,329.98)" d="M80,0h700" style="stroke: rgb(0, 0, 0); stroke-opacity: 0.1; stroke-width: 1px;"/><path class="ygrid crisp" transform="translate(0,241.83)" d="M80,0h700" style="stroke: rgb(0, 0, 0); stroke-opacity: 0.1; stroke-width: 1px;"/><path class="ygrid crisp" transform="translate(0,153.68)" d="M80,0h700" style="stroke: rgb(0, 0, 0); stroke-opacity: 0.1; stroke-width: 1px;"/></g></g><g class="zerolinelayer"/><path class="xlines-below"/><path class="ylines-below"/><g class="overlines-below"/><g class="xaxislayer-below"/><g class="yaxislayer-below"/><g class="overaxes-below"/><g class="plot" transform="translate(80,100)" clip-path="url(#clip3049b1xyplot)"><g class="scatterlayer mlayer"><g class="trace scatter trace6a7625" style="stroke-miterlimit: 2; opacity: 1;"><g class="fills"/><g class="errorbars"/><g class="lines"><path class="js-line" d="M0,427.48Q5.6,427.48 7,427.48C8.4,427.48 12.6,427.48 14,427.48C15.4,427.48 19.6,427.48 21,427.48C22.4,427.48 26.6,427.48 28,427.48C29.4,427.48 33.6,427.48 35,427.48C36.4,427.48 40.6,427.48 42,427.48C43.4,427.48 47.6,427.48 49,427.48C50.4,427.48 54.6,427.48 56,427.48C57.4,427.48 61.6,427.48 63,427.48C64.4,427.48 68.6,427.48 70,427.48C71.4,427.48 75.6,427.48 77,427.48C78.4,427.48 82.6,427.48 84,427.48C85.4,427.48 89.6,427.48 91,427.48C92.4,427.48 96.6,427.48 98,427.48C99.4,427.48 103.6,427.48 105,427.48C106.4,427.48 110.6,427.48 112,427.48C113.4,427.48 117.6,427.48 119,427.48C120.4,427.48 124.6,427.48 126,427.48C127.4,427.48 131.6,427.48 133,427.48C134.4,427.48 138.6,427.48 140,427.48C141.4,427.48 145.6,427.48 147,427.48C148.4,427.48 152.6,427.48 154,427.48C155.4,427.48 159.6,427.48 161,427.48C162.4,427.48 166.6,427.48 168,427.48C169.4,427.48 173.6,427.48 175,427.48C176.4,427.48 180.6,427.48 182,427.48C183.4,427.48 187.6,427.48 189,427.48C190.4,427.48 194.6,427.48 196,427.48C197.4,427.48 201.6,427.48 203,427.48C204.4,427.48 208.6,427.48 210,427.48C211.4,427.48 215.6,427.48 217,427.48C218.4,427.48 222.6,427.48 224,427.48C225.4,427.48 229.6,427.48 231,427.48C232.4,427.48 236.6,427.48 238,427.48C239.4,427.48 243.6,427.48 245,427.48C246.4,427.48 250.6,427.48 252,427.48C253.4,427.48 257.6,427.48 259,427.48C260.4,427.48 264.6,427.48 266,427.48C267.4,427.48 271.6,427.48 273,427.48C274.4,427.48 278.6,427.48 280,427.48C281.4,427.48 285.6,427.48 287,427.48C288.4,427.48 292.6,427.48 294,427.48C295.4,427.48 299.6,427.48 301,427.48C302.4,427.48 306.6,427.48 308,427.48C309.4,427.48 313.6,427.48 315,427.48C316.4,427.48 320.6,427.48 322,427.48C323.4,427.48 327.6,427.48 329,427.48C330.4,427.48 334.6,427.48 336,427.48C337.4,427.48 341.6,427.48 343,427.48C344.4,427.48 348.6,427.48 350,427.48C351.4,427.48 355.6,427.48 357,427.48C358.4,427.48 362.6,427.48 364,427.48C365.4,427.48 369.6,427.48 371,427.48C372.4,427.48 376.6,427.48 378,427.48C379.4,427.48 383.6,427.48 385,427.48C386.4,427.48 390.6,427.48 392,427.48C393.4,427.48 397.6,427.48 399,427.48C400.4,427.48 404.6,427.48 406,427.48C407.4,427.48 411.6,427.48 413,427.48C414.4,427.48 418.6,427.48 420,427.48C421.4,427.48 425.6,427.48 427,427.48C428.4,427.48 432.6,427.48 434,427.48C435.4,427.48 439.6,427.48 441,427.48C442.4,427.48 446.6,427.48 448,427.48C449.4,427.48 453.6,427.48 455,427.48C456.4,427.48 460.6,427.48 462,427.48C463.4,427.48 467.6,427.48 469,427.48C470.4,427.48 474.6,427.48 476,427.48C477.4,427.48 481.6,427.48 483,427.48C484.4,427.48 488.6,427.48 490,427.48C491.4,427.48 495.6,427.48 497,427.48C498.4,427.48 502.6,427.48 504,427.48C505.4,427.48 509.6,427.48 511,427.48C512.4,427.48 516.6,427.48 518,427.48C519.4,427.48 523.6,427.48 525,427.48C526.4,427.48 530.6,427.48 532,427.48C533.4,427.48 537.6,427.48 539,427.48C540.4,427.48 544.6,427.48 546,427.48C547.4,427.48 551.6,427.48 553,427.48C554.4,427.48 558.6,427.48 560,427.48C561.4,427.48 565.6,427.48 567,427.48C568.4,427.48 572.6,427.48 574,427.48C575.4,427.48 579.6,427.48 581,427.48C582.4,427.48 586.6,427.48 588,427.48C589.4,427.48 593.6,427.48 595,427.48C596.4,427.48 600.6,427.48 602,427.48C603.4,427.48 607.6,427.48 609,427.48C610.4,427.48 614.6,427.48 616,427.48C617.4,427.48 621.6,427.48 623,427.48C624.4,427.48 628.6,427.48 630,427.48C631.4,427.48 635.6,427.48 637,427.48C638.4,427.48 642.6,427.48 644,427.48C645.4,427.48 649.6,427.48 651,427.48C652.4,427.48 656.6,427.48 658,427.48C659.4,427.48 663.6,427.48 665,427.48C666.4,427.48 670.6,427.48 672,427.48C673.4,427.48 677.6,427.48 679,427.48C680.4,427.48 684.6,427.48 686,427.48C687.4,427.48 691.6,427.48 693,427.48Q694.4,427.48 700,427.48" style="vector-effect: none; fill: none; stroke: rgb(73, 126, 55); stroke-opacity: 1; stroke-width: 4px; opacity: 1;"/></g><g class="points"/><g class="text"/></g><g class="trace scatter trace3251a3" style="stroke-miterlimit: 2; opacity: 1;"><g class="fills"/><g class="errorbars"/><g class="lines"><path class="js-line" d="M0,439.89Q5.6,439.89 7,439.89C8.4,439.89 12.6,439.89 14,439.89C15.4,439.89 19.6,439.89 21,439.89C22.4,439.89 26.6,439.89 28,439.89C29.4,439.89 33.6,439.89 35,439.89C36.4,439.89 40.6,439.89 42,439.89C43.4,439.89 47.6,439.89 49,439.89C50.4,439.89 54.6,439.89 56,439.89C57.4,439.89 61.6,439.89 63,439.89C64.4,439.89 68.6,439.89 70,439.89C71.4,439.89 75.6,439.89 77,439.89C78.4,439.89 82.6,439.89 84,439.89C85.4,439.89 89.6,439.89 91,439.89C92.4,439.89 96.6,439.89 98,439.89C99.4,439.89 103.6,439.89 105,439.89C106.4,439.89 110.6,439.89 112,439.89C113.4,439.89 117.6,439.89 119,439.89C120.4,439.89 124.6,439.89 126,439.89C127.4,439.89 131.6,439.89 133,439.89C134.4,439.89 138.6,439.89 140,439.89C141.4,439.89 145.6,439.89 147,439.89C148.4,439.89 152.6,439.89 154,439.89C155.4,439.89 159.6,439.89 161,439.89C162.4,439.89 166.6,439.89 168,439.89C169.4,439.89 173.6,439.89 175,439.89C176.4,439.89 180.6,439.89 182,439.89C183.4,439.89 187.6,439.89 189,439.89C190.4,439.89 194.6,439.89 196,439.89C197.4,439.89 201.6,439.89 203,439.89C204.4,439.89 208.6,439.89 210,439.89C211.4,439.89 215.6,439.89 217,439.89C218.4,439.89 222.6,439.89 224,439.89C225.4,439.89 229.6,439.89 231,439.89C232.4,439.89 236.6,439.89 238,439.89C239.4,439.89 243.6,439.89 245,439.89C246.4,439.89 250.6,439.89 252,439.89C253.4,439.89 257.6,439.89 259,439.89C260.4,439.89 264.6,439.89 266,439.89C267.4,439.89 271.6,439.89 273,439.89C274.4,439.89 278.6,439.89 280,439.89C281.4,439.89 285.6,439.89 287,439.89C288.4,439.89 292.6,439.89 294,439.89C295.4,439.89 299.6,439.89 301,439.89C302.4,439.89 306.6,439.89 308,439.89C309.4,439.89 313.6,439.89 315,439.89C316.4,439.89 320.6,439.89 322,439.89C323.4,439.89 327.6,439.89 329,439.89C330.4,439.89 334.6,439.89 336,439.89C337.4,439.89 341.6,439.89 343,439.89C344.4,439.89 348.6,439.89 350,439.89C351.4,439.89 355.6,439.89 357,439.89C358.4,439.89 362.6,439.89 364,439.89C365.4,439.89 369.6,439.89 371,439.89C372.4,439.89 376.6,439.89 378,439.89C379.4,439.89 383.6,439.89 385,439.89C386.4,439.89 390.6,439.89 392,439.89C393.4,439.89 397.6,439.89 399,439.89C400.4,439.89 404.6,439.89 406,439.89C407.4,439.89 411.6,439.89 413,439.89C414.4,439.89 418.6,439.89 420,439.89C421.4,439.89 425.6,439.89 427,439.89C428.4,439.89 432.6,439.89 434,439.89C435.4,439.89 439.6,439.89 441,439.89C442.4,439.89 446.6,439.89 448,439.89C449.4,439.89 453.6,439.89 455,439.89C456.4,439.89 460.6,439.89 462,439.89C463.4,439.89 467.6,439.89 469,439.89C470.4,439.89 474.6,439.89 476,439.89C477.4,439.89 481.6,439.89 483,439.89C484.4,439.89 488.6,439.89 490,439.89C491.4,439.89 495.6,439.89 497,439.89C498.4,439.89 502.6,439.89 504,439.89C505.4,439.89 509.6,439.89 511,439.89C512.4,439.89 516.6,439.89 518,439.89C519.4,439.89 523.6,439.89 525,439.89C526.4,439.89 530.6,439.89 532,439.89C533.4,439.89 537.6,439.89 539,439.89C540.4,439.89 544.6,439.89 546,439.89C547.4,439.89 551.6,439.89 553,439.89C554.4,439.89 558.6,439.89 560,439.89C561.4,439.89 565.6,439.89 567,439.89C568.4,439.89 572.6,439.89 574,439.89C575.4,439.89 579.6,439.89 581,439.89C582.4,439.89 586.6,439.89 588,439.89C589.4,439.89 593.6,439.89 595,439.89C596.4,439.89 600.6,439.89 602,439.89C603.4,439.89 607.6,439.89 609,439.89C610.4,439.89 614.6,439.89 616,439.89C617.4,439.89 621.6,439.89 623,439.89C624.4,439.89 628.6,439.89 630,439.89C631.4,439.89 635.6,439.89 637,439.89C638.4,439.89 642.6,439.89 644,439.89C645.4,439.89 649.6,439.89 651,439.89C652.4,439.89 656.6,439.89 658,439.89C659.4,439.89 663.6,439.89 665,439.89C666.4,439.89 670.6,439.89 672,439.89C673.4,439.89 677.6,439.89 679,439.89C680.4,439.89 684.6,439.89 686,439.89C687.4,439.89 691.6,439.89 693,439.89Q694.4,439.89 700,439.89" style="vector-effect: none; fill: none; stroke: rgb(108, 108, 108); stroke-opacity: 1; stroke-width: 4px; opacity: 1;"/></g><g class="points"/><g class="text"/></g><g class="trace scatter traceadb12c" style="stroke-miterlimit: 2; opacity: 1;"><g class="fills"/><g class="errorbars"/><g class="lines"><path class="js-line" d="M0,320.93Q5.6,320.93 7,320.93C8.4,320.93 12.6,320.93 14,320.93C15.4,320.93 19.6,320.93 21,320.93C22.4,320.93 26.6,320.93 28,320.93C29.4,320.93 33.6,320.93 35,320.93C36.4,320.93 40.6,320.93 42,320.93C43.4,320.93 47.6,320.93 49,320.93C50.4,320.93 54.6,320.93 56,320.93C57.4,320.93 61.6,320.93 63,320.93C64.4,320.93 68.6,320.93 70,320.93C71.4,320.93 75.6,320.93 77,320.93C78.4,320.93 82.6,320.93 84,320.93C85.4,320.93 89.6,320.93 91,320.93C92.4,320.93 96.6,320.93 98,320.93C99.4,320.93 103.6,320.93 105,320.93C106.4,320.93 110.6,320.93 112,320.93C113.4,320.93 117.6,320.93 119,320.93C120.4,320.93 124.6,320.93 126,320.93C127.4,320.93 131.6,320.93 133,320.93C134.4,320.93 138.6,320.93 140,320.93C141.4,320.93 145.6,320.93 147,320.93C148.4,320.93 152.6,320.93 154,320.93C155.4,320.93 159.6,320.93 161,320.93C162.4,320.93 166.6,320.93 168,320.93C169.4,320.93 173.6,320.93 175,320.93C176.4,320.93 180.6,320.93 182,320.93C183.4,320.93 187.6,320.93 189,320.93C190.4,320.93 194.6,320.93 196,320.93C197.4,320.93 201.6,320.93 203,320.93C204.4,320.93 208.6,320.93 210,320.93C211.4,320.93 215.6,320.93 217,320.93C218.4,320.93 222.6,320.93 224,320.93C225.4,320.93 229.6,320.93 231,320.93C232.4,320.93 236.6,320.93 238,320.93C239.4,320.93 243.6,320.93 245,320.93C246.4,320.93 250.6,320.93 252,320.93C253.4,320.93 257.6,320.93 259,320.93C260.4,320.93 264.6,320.93 266,320.93C267.4,320.93 271.6,320.93 273,320.93C274.4,320.93 278.6,320.93 280,320.93C281.4,320.93 285.6,320.93 287,320.93C288.4,320.93 292.6,320.93 294,320.93C295.4,320.93 299.6,320.93 301,320.93C302.4,320.93 306.6,320.93 308,320.93C309.4,320.93 313.6,320.93 315,320.93C316.4,320.93 320.6,320.93 322,320.93C323.4,320.93 327.6,320.93 329,320.93C330.4,320.93 334.6,320.93 336,320.93C337.4,320.93 341.6,320.93 343,320.93C344.4,320.93 348.6,320.93 350,320.93C351.4,320.93 355.6,320.93 357,320.93C358.4,320.93 362.6,320.93 364,320.93C365.4,320.93 369.6,320.93 371,320.93C372.4,320.93 376.6,320.93 378,320.93C379.4,320.93 383.6,320.93 385,320.93C386.4,320.93 390.6,320.93 392,320.93C393.4,320.93 397.6,320.93 399,320.93C400.4,320.93 404.6,320.93 406,320.93C407.4,320.93 411.6,320.93 413,320.93C414.4,320.93 418.6,320.93 420,320.93C421.4,320.93 425.6,320.93 427,320.93C428.4,320.93 432.6,320.93 434,320.93C435.4,320.93 439.6,320.93 441,320.93C442.4,320.93 446.6,320.93 448,320.93C449.4,320.93 453.6,320.93 455,320.93C456.4,320.93 460.6,320.93 462,320.93C463.4,320.93 467.6,320.93 469,320.93C470.4,320.93 474.6,320.93 476,320.93C477.4,320.93 481.6,320.93 483,320.93C484.4,320.93 488.6,320.93 490,320.93C491.4,320.93 495.6,320.93 497,320.93C498.4,320.93 502.6,320.93 504,320.93C505.4,320.93 509.6,320.93 511,320.93C512.4,320.93 516.6,320.93 518,320.93C519.4,320.93 523.6,320.93 525,320.93C526.4,320.93 530.6,320.93 532,320.93C533.4,320.93 537.6,320.93 539,320.93C540.4,320.93 544.6,320.93 546,320.93C547.4,320.93 551.6,320.93 553,320.93C554.4,320.93 558.6,320.93 560,320.93C561.4,320.93 565.6,320.93 567,320.93C568.4,320.93 572.6,320.93 574,320.93C575.4,320.93 579.6,320.93 581,320.93C582.4,320.93 586.6,320.93 588,320.93C589.4,320.93 593.6,320.93 595,320.93C596.4,320.93 600.6,320.93 602,320.93C603.4,320.93 607.6,320.93 609,320.93C610.4,320.93 614.6,320.93 616,320.93C617.4,320.93 621.6,320.93 623,320.93C624.4,320.93 628.6,320.93 630,320.93C631.4,320.93 635.6,320.93 637,320.93C638.4,320.93 642.6,320.93 644,320.93C645.4,320.93 649.6,320.93 651,320.93C652.4,320.93 656.6,320.93 658,320.93C659.4,320.93 663.6,320.93 665,320.93C666.4,320.93 670.6,320.93 672,320.93C673.4,320.93 677.6,320.93 679,320.93C680.4,320.93 684.6,320.93 686,320.93C687.4,320.93 691.6,320.93 693,320.93Q694.4,320.93 700,320.93" style="vector-effect: none; fill: none; stroke: rgb(153, 97, 50); stroke-opacity: 1; stroke-width: 4px; opacity: 1;"/></g><g class="points"/><g class="text"/></g><g class="trace scatter trace0ad474" style="stroke-miterlimit: 2; opacity: 1;"><g class="fills"/><g class="errorbars"/><g class="lines"><path class="js-line" d="M0,485.52Q5.6,485.52 7,485.52C8.4,485.52 12.6,485.52 14,485.52C15.4,485.52 19.6,485.52 21,485.52C22.4,485.52 26.6,485.53 28,485.53C29.4,485.53 33.6,485.54 35,485.54C36.4,485.54 40.6,485.55 42,485.55C43.4,485.55 47.6,485.57 49,485.57C50.4,485.57 54.6,485.57 56,485.57C57.4,485.57 61.6,485.57 63,485.57C64.4,485.57 68.6,485.57 70,485.57C71.4,485.57 75.6,485.57 77,485.57C78.4,485.57 82.6,485.57 84,485.57C85.4,485.57 89.6,485.57 91,485.57C92.4,485.57 96.6,485.57 98,485.57C99.4,485.57 103.6,485.57 105,485.57C106.4,485.57 110.6,485.57 112,485.57C113.4,485.57 117.6,485.57 119,485.57C120.4,485.57 124.6,485.57 126,485.57C127.4,485.57 131.6,485.57 133,485.57C134.4,485.57 138.6,485.57 140,485.57C141.4,485.57 145.6,485.57 147,485.57C148.4,485.57 152.6,485.57 154,485.57C155.4,485.57 159.6,485.57 161,485.57C162.4,485.57 166.6,485.57 168,485.57C169.4,485.57 173.6,485.59 175,485.59C176.4,485.6 180.6,485.61 182,485.62C183.4,485.63 187.6,485.64 189,485.65C190.4,485.66 194.61,485.49 196,485.7Q197.42,485.91 203,487.78" style="vector-effect: none; fill: none; stroke: rgb(253, 125, 189); stroke-opacity: 1; stroke-width: 4px; opacity: 1;"/></g><g class="points"/><g class="text"/></g><g class="trace scatter tracea44262" style="stroke-miterlimit: 2; opacity: 1;"><g class="fills"/><g class="errorbars"/><g class="lines"><path class="js-line" d="M0,26Q5.6,27.11 7,27.39C8.4,27.67 12.61,28.42 14,28.79C15.41,29.16 19.65,30.44 21,31.11C22.45,31.83 26.6,34.99 28,35.95C29.4,36.91 33.6,39.78 35,40.73C36.4,41.68 40.6,44.52 42,45.46C43.4,46.39 47.6,49.17 49,50.07C50.4,50.97 54.6,53.59 56,54.47C57.4,55.35 61.6,58 63,58.88C64.4,59.76 68.6,62.4 70,63.28C71.4,64.16 75.6,66.81 77,67.69C78.4,68.57 82.6,71.22 84,72.1C85.4,72.98 89.6,75.62 91,76.5C92.4,77.38 96.6,80.03 98,80.91C99.4,81.79 103.6,84.44 105,85.32C106.4,86.2 110.6,88.84 112,89.72C113.4,90.6 117.6,93.25 119,94.13C120.4,95.01 124.6,97.66 126,98.54C127.4,99.42 131.6,102.06 133,102.94C134.4,103.82 138.6,106.47 140,107.35C141.4,108.23 145.6,110.88 147,111.76C148.4,112.64 152.6,115.29 154,116.17C155.4,117.05 159.6,119.7 161,120.58C162.4,121.46 166.6,124.1 168,124.99C169.4,125.88 173.6,128.6 175,129.5C176.4,130.4 180.6,133.12 182,134.02C183.4,134.92 187.6,137.63 189,138.53C190.4,139.43 194.58,142.22 196,143.05C197.38,143.85 201.57,146.16 203,146.69C204.37,147.2 208.65,147.75 210,148.32C211.45,148.93 215.6,151.87 217,152.75C218.4,153.63 222.6,156.26 224,157.14C225.4,158.02 229.6,160.66 231,161.54C232.4,162.42 236.6,165.05 238,165.93C239.4,166.81 243.6,169.44 245,170.32C246.4,171.2 250.6,173.84 252,174.72C253.4,175.6 257.6,178.23 259,179.11C260.4,179.99 264.6,182.63 266,183.51C267.4,184.39 271.6,187.02 273,187.9C274.4,188.78 278.6,191.42 280,192.3C281.4,193.18 285.6,195.81 287,196.69C288.4,197.57 292.6,200.21 294,201.09C295.4,201.97 299.6,204.6 301,205.48C302.4,206.36 306.6,209 308,209.88C309.4,210.76 313.6,213.4 315,214.28C316.4,215.16 320.6,217.79 322,218.67C323.4,219.55 327.6,222.19 329,223.07C330.4,223.95 334.6,226.59 336,227.47C337.4,228.35 341.6,230.99 343,231.87C344.4,232.75 348.6,235.4 350,236.29C351.4,237.18 355.6,239.89 357,240.79C358.4,241.69 362.6,244.4 364,245.31C365.4,246.22 369.6,248.95 371,249.86C372.4,250.77 376.6,253.51 378,254.43C379.4,255.35 383.6,258.11 385,259.04C386.4,259.97 390.6,262.76 392,263.69C393.4,264.62 397.6,267.44 399,268.38C400.4,269.32 404.6,272.16 406,273.11C407.4,274.06 411.6,276.92 413,277.88C414.4,278.84 418.74,281.3 420,282.68C421.63,284.46 425.59,292.62 427,295.07C428.39,297.48 432.44,305.05 434,306.96C435.29,308.54 439.55,312.16 441,313.25C442.36,314.27 446.6,316.71 448,317.58C449.4,318.45 453.6,321.04 455,321.91C456.4,322.78 460.62,325.29 462,326.24C463.42,327.22 467.61,330.47 469,331.59C470.42,332.73 474.69,336.09 476,337.55C477.52,339.24 481.6,345.76 483,347.82C484.4,349.88 488.6,356.07 490,358.13C491.4,360.19 495.6,366.38 497,368.44C498.4,370.5 502.6,376.7 504,378.76C505.4,380.82 509.6,387.01 511,389.07C512.4,391.13 516.6,397.32 518,399.38C519.4,401.44 523.6,407.63 525,409.69C526.4,411.75 530.6,417.95 532,420.01C533.4,422.07 537.6,428.26 539,430.32C540.4,432.38 544.6,438.57 546,440.63C547.4,442.69 551.6,448.88 553,450.94C554.4,453 558.6,459.2 560,461.26C561.4,463.32 565.6,469.51 567,471.57C568.4,473.63 572.6,479.82 574,481.88Q575.4,483.94 581,492.19" style="vector-effect: none; fill: none; stroke: rgb(145, 220, 143); stroke-opacity: 1; stroke-width: 4px; opacity: 1;"/></g><g class="points"/><g class="text"/></g><g class="trace scatter trace3c8d28" style="stroke-miterlimit: 2; opacity: 1;"><g class="fills"/><g class="errorbars"/><g class="lines"><path class="js-line" d="M0,424.91Q5.6,422.5 7,421.9C8.4,421.3 12.58,419.06 14,418.9C15.38,418.74 19.77,419.28 21,420.16C22.76,421.42 26.59,430.41 28,432.93C29.39,435.4 33.57,442.76 35,445.12C36.38,447.4 40.41,454.55 42,456.19C43.28,457.51 47.71,461.17 49,460.92C50.57,460.62 54.6,452.61 56,450.53C57.4,448.45 61.6,442.22 63,440.14C64.4,438.06 68.6,431.84 70,429.76C71.4,427.68 75.6,421.45 77,419.37C78.4,417.29 82.6,411.07 84,408.99C85.4,406.91 89.6,400.68 91,398.6C92.4,396.52 96.6,390.29 98,388.21C99.4,386.13 103.6,379.9 105,377.82C106.4,375.74 110.6,369.52 112,367.44C113.4,365.36 117.6,359.13 119,357.05C120.4,354.97 124.6,348.74 126,346.66C127.4,344.58 131.6,338.35 133,336.27C134.4,334.19 138.6,327.96 140,325.88C141.4,323.8 145.6,317.57 147,315.49C148.4,313.41 152.6,307.18 154,305.1C155.4,303.02 159.59,296.76 161,294.71C162.39,292.68 166.35,285.64 168,284.67C169.25,283.94 173.6,284.11 175,283.98C176.4,283.85 180.6,283.51 182,283.4C183.4,283.29 187.6,283 189,282.91C190.4,282.82 194.61,282.65 196,282.48C197.41,282.31 201.63,281.63 203,281.19C204.43,280.73 208.7,277.6 210,277.89C211.54,278.23 215.66,284.41 217,286.25C218.47,288.27 222.6,295.13 224,297.35C225.4,299.57 229.6,306.23 231,308.45C232.4,310.67 236.6,317.32 238,319.54C239.4,321.76 243.6,328.42 245,330.64C246.4,332.86 250.6,339.52 252,341.74C253.4,343.96 257.6,350.62 259,352.84C260.4,355.06 264.6,361.71 266,363.93C267.4,366.15 271.6,372.81 273,375.03C274.4,377.25 278.6,383.91 280,386.13C281.4,388.35 285.6,395 287,397.22C288.4,399.44 292.6,406.1 294,408.32C295.4,410.54 299.6,417.2 301,419.42C302.4,421.64 306.6,428.3 308,430.52C309.4,432.74 313.6,439.39 315,441.61C316.4,443.83 320.6,450.49 322,452.71C323.4,454.93 327.6,461.59 329,463.81C330.4,466.03 334.6,472.68 336,474.9Q337.4,477.12 343,486" style="vector-effect: none; fill: none; stroke: rgb(100, 221, 23); stroke-opacity: 1; stroke-width: 4px; opacity: 1;"/></g><g class="points"/><g class="text"/></g><g class="trace scatter tracea7cb21" style="stroke-miterlimit: 2; opacity: 1;"><g class="fills"/><g class="errorbars"/><g class="lines"><path class="js-line" d="M0,411.63Q5.6,411.63 7,411.63C8.4,411.63 12.6,411.64 14,411.63C15.4,411.62 19.6,411.6 21,411.51C22.4,411.42 26.61,411 28,410.77C29.41,410.54 33.62,409.69 35,409.24C36.42,408.78 40.62,406.88 42,406.18C43.42,405.46 47.54,402.47 49,402.08C50.35,401.71 54.6,402.08 56,402.08C57.4,402.08 61.6,402.09 63,402.09C64.4,402.09 68.6,402.09 70,402.09C71.4,402.09 75.6,402.09 77,402.09C78.4,402.09 82.6,402.09 84,402.09C85.4,402.09 89.6,402.1 91,402.1C92.4,402.1 96.6,402.1 98,402.1C99.4,402.1 103.6,402.1 105,402.1C106.4,402.1 110.6,402.1 112,402.1C113.4,402.1 117.6,402.11 119,402.11C120.4,402.11 124.6,402.11 126,402.11C127.4,402.11 131.6,402.11 133,402.11C134.4,402.11 138.6,402.12 140,402.12C141.4,402.12 145.6,402.12 147,402.12C148.4,402.12 152.6,402.12 154,402.12C155.4,402.12 159.6,402.12 161,402.13C162.4,402.14 166.61,402.01 168,402.2C169.41,402.39 173.6,403.74 175,404.08C176.4,404.42 180.6,405.33 182,405.61C183.4,405.89 187.6,406.64 189,406.87C190.4,407.1 194.6,407.74 196,407.92C197.4,408.1 201.6,408.58 203,408.7C204.4,408.82 208.6,409.09 210,409.16C211.4,409.22 215.6,409.33 217,409.35C218.4,409.37 222.6,409.37 224,409.37C225.4,409.37 229.6,409.38 231,409.38C232.4,409.38 236.6,409.4 238,409.4C239.4,409.4 243.6,409.41 245,409.41C246.4,409.41 250.6,409.43 252,409.43C253.4,409.43 257.6,409.45 259,409.45C260.4,409.45 264.6,409.47 266,409.47C267.4,409.47 271.6,409.48 273,409.48C274.4,409.48 278.6,409.5 280,409.5C281.4,409.5 285.6,409.52 287,409.52C288.4,409.52 292.6,409.54 294,409.54C295.4,409.54 299.6,409.56 301,409.56C302.4,409.56 306.6,409.58 308,409.58C309.4,409.59 313.6,409.6 315,409.61C316.4,409.61 320.6,409.63 322,409.63C323.4,409.63 327.6,409.65 329,409.65C330.4,409.66 334.6,409.67 336,409.68C337.4,409.68 341.6,409.65 343,409.7C344.4,409.75 348.61,409.96 350,410.17C351.41,410.38 355.6,411.53 357,411.84C358.4,412.15 362.6,413.03 364,413.31C365.4,413.59 369.6,414.4 371,414.67C372.4,414.94 376.6,415.71 378,415.97C379.4,416.22 383.6,416.97 385,417.22C386.4,417.47 390.6,418.19 392,418.44C393.4,418.69 397.6,419.43 399,419.68C400.4,419.93 404.6,420.71 406,420.98C407.4,421.25 411.6,422.09 413,422.4C414.4,422.71 418.59,423.93 420,424.12C421.39,424.31 425.6,424.25 427,424.3C428.4,424.35 432.69,424.07 434,424.61C435.53,425.25 439.79,429.22 441,431.07C442.81,433.84 446.6,447.13 448,451.14C449.4,455.15 453.6,467.19 455,471.2Q456.4,475.21 462,491.27" style="vector-effect: none; fill: none; stroke: rgb(253, 165, 115); stroke-opacity: 1; stroke-width: 4px; opacity: 1;"/></g><g class="points"/><g class="text"/></g><g class="trace scatter trace0ad03d" style="stroke-miterlimit: 2; opacity: 1;"><g class="fills"/><g class="errorbars"/><g class="lines"><path class="js-line" d="M427,486.56Q432.46,480.1 434,479.22C435.3,478.48 439.59,477.77 441,477.61C442.39,477.45 446.6,477.61 448,477.61C449.4,477.61 453.6,477.61 455,477.61C456.4,477.61 460.6,477.66 462,477.61C463.4,477.56 467.6,477.22 469,477.12C470.4,477.03 474.6,476.71 476,476.66C477.4,476.61 481.6,476.65 483,476.65C484.4,476.65 488.6,476.65 490,476.65C491.4,476.65 495.6,476.65 497,476.65C498.4,476.65 502.6,476.65 504,476.65C505.4,476.65 509.6,476.65 511,476.65C512.4,476.65 516.6,476.65 518,476.65C519.4,476.65 523.6,476.65 525,476.65C526.4,476.65 530.6,476.65 532,476.65C533.4,476.65 537.6,476.65 539,476.65C540.4,476.65 544.6,476.65 546,476.65C547.4,476.65 551.6,476.65 553,476.65C554.4,476.65 558.6,476.65 560,476.65C561.4,476.65 565.6,476.65 567,476.65C568.4,476.65 572.6,476.65 574,476.65C575.4,476.65 579.64,476.3 581,476.65C582.45,477.02 586.69,479.4 588,480.48Q589.53,481.74 595,488.92" style="vector-effect: none; fill: none; stroke: rgb(232, 170, 67); stroke-opacity: 1; stroke-width: 4px; opacity: 1;"/></g><g class="points"/><g class="text"/></g><g class="trace scatter trace472aa8" style="stroke-miterlimit: 2; opacity: 1;"><g class="fills"/><g class="errorbars"/><g class="lines"><path class="js-line" d="M616,491.66Q621.6,484.64 623,482.89C624.4,481.14 628.6,475.88 630,474.13C631.4,472.38 635.6,467.12 637,465.37C638.4,463.62 642.6,458.35 644,456.6C645.4,454.85 649.6,449.59 651,447.84C652.4,446.09 656.6,440.83 658,439.08C659.4,437.33 663.6,432.06 665,430.31C666.4,428.56 670.6,423.3 672,421.55C673.4,419.8 677.6,414.53 679,412.78C680.4,411.03 684.5,405.48 686,404.02C687.32,402.73 691.51,399.22 693,398.7Q694.33,398.23 700,398.51" style="vector-effect: none; fill: none; stroke: rgb(238, 139, 255); stroke-opacity: 1; stroke-width: 4px; opacity: 1;"/></g><g class="points"/><g class="text"/></g><g class="trace scatter trace0821df" style="stroke-miterlimit: 2; opacity: 1;"><g class="fills"/><g class="errorbars"/><g class="lines"><path class="js-line" d="M483,474.49Q488.6,458.38 490,454.35C491.4,450.32 495.6,438.23 497,434.2C498.4,430.17 502.6,418.08 504,414.05C505.4,410.02 509.6,397.93 511,393.9C512.4,389.87 516.6,377.79 518,373.76C519.4,369.73 523.6,357.64 525,353.61C526.4,349.58 530.6,337.49 532,333.46C533.4,329.43 537.6,317.35 539,313.32C540.4,309.29 544.6,297.2 546,293.17C547.4,289.14 551.6,277.06 553,273.03C554.4,269 558.6,256.92 560,252.89C561.4,248.86 565.6,236.77 567,232.74C568.4,228.71 572.6,216.63 574,212.6C575.4,208.57 579.28,195.51 581,192.46C582.23,190.27 586.4,184.73 588,184.01C589.27,183.44 593.6,184.21 595,184.24C596.4,184.27 600.6,184.31 602,184.31C603.4,184.31 607.73,183.6 609,184.21C610.62,184.98 614.8,190.71 616,193.17C617.92,197.12 621.6,215.91 623,221.59C624.4,227.28 628.6,244.33 630,250.02C631.4,255.71 635.6,272.76 637,278.45C638.4,284.13 642.6,301.19 644,306.87C645.4,312.56 649.6,329.61 651,335.3C652.4,340.98 656.6,358.04 658,363.72C659.4,369.41 663.6,386.46 665,392.15C666.4,397.84 670.6,414.89 672,420.58C673.4,426.26 677.6,443.32 679,449Q680.4,454.69 686,477.43" style="vector-effect: none; fill: none; stroke: rgb(0, 176, 255); stroke-opacity: 1; stroke-width: 4px; opacity: 1;"/></g><g class="points"/><g class="text"/></g><g class="trace scatter traceb2df8c" style="stroke-miterlimit: 2; opacity: 1;"><g class="fills"/><g class="errorbars"/><g class="lines"><path class="js-line" d="M217,487.15Q222.6,479.46 224,477.54C225.4,475.62 229.6,469.86 231,467.94C232.4,466.02 236.6,460.26 238,458.34C239.4,456.42 243.6,450.66 245,448.74C246.4,446.82 250.6,441.06 252,439.14C253.4,437.22 257.6,431.46 259,429.54C260.4,427.62 264.6,421.86 266,419.94C267.4,418.02 271.6,412.26 273,410.34C274.4,408.42 278.6,402.66 280,400.74C281.4,398.82 285.6,393.06 287,391.14C288.4,389.22 292.6,383.45 294,381.53C295.4,379.61 299.6,373.85 301,371.93C302.4,370.01 306.6,364.25 308,362.33C309.4,360.41 313.6,354.65 315,352.73C316.4,350.81 320.6,345.05 322,343.13C323.4,341.21 327.6,335.44 329,333.52C330.4,331.6 334.6,325.84 336,323.92C337.4,322 341.54,316.08 343,314.32C344.35,312.69 348.44,307.62 350,306.88C351.29,306.26 355.6,306.46 357,306.36C358.4,306.26 362.6,306 364,305.91C365.4,305.82 369.6,305.58 371,305.5C372.4,305.42 376.6,305.19 378,305.12C379.4,305.05 383.6,304.83 385,304.76C386.4,304.69 390.6,304.47 392,304.4C393.4,304.33 397.6,304.11 399,304.04C400.4,303.97 404.6,303.75 406,303.67C407.4,303.59 411.6,303.35 413,303.26C414.4,303.17 418.67,303.26 420,302.77C421.48,302.22 425.59,298.59 427,297.58C428.39,296.58 432.55,293.46 434,292.69C435.36,291.97 439.66,290.75 441,289.97C442.47,289.11 446.6,285.38 448,284.23C449.4,283.08 453.6,279.63 455,278.48C456.4,277.33 460.5,273.39 462,272.74C463.32,272.17 467.6,271.79 469,271.83C470.4,271.87 474.79,272.18 476,273.1C477.81,274.47 481.6,284.49 483,287.34C484.4,290.2 488.6,298.82 490,301.69C491.4,304.56 495.6,313.18 497,316.05C498.4,318.92 502.6,327.54 504,330.41C505.4,333.28 509.6,341.9 511,344.77C512.4,347.64 516.6,356.26 518,359.13C519.4,362 523.6,370.61 525,373.48C526.4,376.35 530.6,384.97 532,387.84C533.4,390.71 537.6,399.33 539,402.2C540.4,405.07 544.6,413.68 546,416.55C547.4,419.42 551.6,428.04 553,430.91C554.4,433.78 558.6,442.39 560,445.26C561.4,448.13 565.6,456.75 567,459.62C568.4,462.49 572.6,471.1 574,473.97Q575.4,476.84 581,488.33" style="vector-effect: none; fill: none; stroke: rgb(0, 145, 234); stroke-opacity: 1; stroke-width: 4px; opacity: 1;"/></g><g class="points"/><g class="text"/></g><g class="trace scatter trace603daa" style="stroke-miterlimit: 2; opacity: 1;"><g class="fills"/><g class="errorbars"/><g class="lines"><path class="js-line" d="M0,373.25Q5.6,408.72 7,417.59Q8.4,426.46 14,461.93" style="vector-effect: none; fill: none; stroke: rgb(136, 119, 255); stroke-opacity: 1; stroke-width: 4px; opacity: 1;"/></g><g class="points"/><g class="text"/></g><g class="trace scatter trace531bcc" style="stroke-miterlimit: 2; opacity: 1;"><g class="fills"/><g class="errorbars"/><g class="lines"><path class="js-line" d="M0,419.98Q5.6,387.54 7,379.43C8.4,371.32 12.54,346.65 14,338.89C15.35,331.72 19.29,310.12 21,304.49C22.24,300.41 26.58,290.72 28,287.37C29.38,284.12 33.55,274.48 35,271.44C36.36,268.58 40.31,259.65 42,257.8C43.24,256.44 47.76,252.99 49,253.34C50.71,253.82 54.6,264.71 56,267.55C57.4,270.39 61.6,278.92 63,281.76C64.4,284.6 68.6,293.13 70,295.97C71.4,298.81 75.6,307.34 77,310.18C78.4,313.02 82.6,321.55 84,324.39C85.4,327.23 89.6,335.76 91,338.6C92.4,341.44 96.6,349.97 98,352.81C99.4,355.65 103.6,364.18 105,367.02C106.4,369.86 110.6,378.4 112,381.24C113.4,384.08 117.6,392.61 119,395.45C120.4,398.29 124.6,406.82 126,409.66C127.4,412.5 131.6,421.04 133,423.88C134.4,426.72 138.6,435.25 140,438.09C141.4,440.93 145.6,449.47 147,452.31C148.4,455.15 152.6,463.68 154,466.52Q155.4,469.36 161,480.74" style="vector-effect: none; fill: none; stroke: rgb(108, 117, 253); stroke-opacity: 1; stroke-width: 4px; opacity: 1;"/></g><g class="points"/><g class="text"/></g><g class="trace scatter trace4dbfda" style="stroke-miterlimit: 2; opacity: 1;"><g class="fills"/><g class="errorbars"/><g class="lines"><path class="js-line" d="M49,493.09Q54.6,488.52 56,487.38C57.4,486.24 61.6,482.81 63,481.67C64.4,480.53 68.6,477.1 70,475.96C71.4,474.82 75.6,471.39 77,470.25C78.4,469.11 82.6,465.68 84,464.54C85.4,463.4 89.6,459.97 91,458.83C92.4,457.69 96.6,454.26 98,453.12C99.4,451.98 103.6,448.55 105,447.41C106.4,446.27 110.6,442.84 112,441.7C113.4,440.56 117.6,437.13 119,435.99C120.4,434.85 124.6,431.42 126,430.28C127.4,429.14 131.6,425.71 133,424.57C134.4,423.43 138.6,420 140,418.86C141.4,417.72 145.6,414.29 147,413.15C148.4,412.01 152.6,408.57 154,407.43C155.4,406.29 159.6,402.86 161,401.72C162.4,400.59 166.55,397.03 168,396.08C169.36,395.19 173.6,393.13 175,392.4C176.4,391.67 180.6,389.51 182,388.8C183.4,388.09 187.6,385.98 189,385.28C190.4,384.58 194.6,382.5 196,381.81C197.4,381.12 201.6,379.09 203,378.42C204.4,377.75 208.6,375.78 210,375.12C211.4,374.47 215.6,372.52 217,371.87C218.4,371.22 222.6,369.3 224,368.66C225.4,368.02 229.6,366.09 231,365.45C232.4,364.81 236.6,362.89 238,362.25C239.4,361.61 243.6,359.68 245,359.04C246.4,358.4 250.6,356.47 252,355.83C253.4,355.19 257.6,353.26 259,352.62C260.4,351.98 264.6,350.05 266,349.41C267.4,348.77 271.6,346.85 273,346.21C274.4,345.57 278.6,343.64 280,343C281.4,342.36 285.6,340.43 287,339.79C288.4,339.15 292.6,337.22 294,336.58C295.4,335.94 299.6,334.02 301,333.38C302.4,332.74 306.6,330.81 308,330.17C309.4,329.53 313.6,327.6 315,326.96C316.4,326.32 320.6,324.39 322,323.75C323.4,323.11 327.6,321.18 329,320.54C330.4,319.9 334.6,317.98 336,317.34C337.4,316.7 341.6,314.78 343,314.13C344.4,313.48 348.6,311.51 350,310.83C351.4,310.15 355.6,308.04 357,307.35C358.4,306.66 362.6,304.63 364,303.96C365.4,303.29 369.6,301.29 371,300.63C372.4,299.97 376.6,298 378,297.35C379.4,296.7 383.6,294.74 385,294.09C386.4,293.44 390.6,291.5 392,290.85C393.4,290.2 397.6,288.27 399,287.62C400.4,286.98 404.6,285.04 406,284.4C407.4,283.76 411.6,281.83 413,281.19C414.4,280.55 418.6,278.61 420,277.97C421.4,277.33 425.6,275.41 427,274.77C428.4,274.13 432.6,272.2 434,271.56C435.4,270.92 439.6,268.99 441,268.35C442.4,267.71 446.6,265.78 448,265.14C449.4,264.5 453.6,262.57 455,261.93C456.4,261.29 460.6,259.36 462,258.72C463.4,258.08 467.6,256.16 469,255.52C470.4,254.88 474.6,252.95 476,252.31C477.4,251.67 481.6,249.74 483,249.1C484.4,248.46 488.6,246.53 490,245.89C491.4,245.25 495.6,243.32 497,242.68C498.4,242.04 502.6,240.12 504,239.48C505.4,238.84 509.6,236.91 511,236.27C512.4,235.63 516.6,233.7 518,233.06C519.4,232.42 523.6,230.49 525,229.85C526.4,229.21 530.6,227.29 532,226.65C533.4,226.01 537.6,224.08 539,223.44C540.4,222.8 544.6,220.87 546,220.23C547.4,219.59 551.6,217.66 553,217.02C554.4,216.38 558.6,214.46 560,213.82C561.4,213.18 565.6,211.25 567,210.61C568.4,209.97 572.6,208.04 574,207.4C575.4,206.76 579.6,204.82 581,204.19C582.4,203.56 586.6,201.74 588,201.13C589.4,200.52 593.57,198.43 595,198.13C596.37,197.84 600.65,197.68 602,198.03C603.45,198.4 607.56,201.45 609,201.98C610.36,202.48 614.62,203.49 616,203.34C617.43,203.18 621.6,200.88 623,200.26C624.4,199.64 628.6,197.79 630,197.17C631.4,196.55 635.6,194.7 637,194.08C638.4,193.46 642.6,191.61 644,190.99C645.4,190.37 649.6,188.52 651,187.9C652.4,187.28 656.6,185.43 658,184.81C659.4,184.19 663.6,182.35 665,181.73C666.4,181.11 670.6,179.26 672,178.64C673.4,178.02 677.6,176.17 679,175.55C680.4,174.93 684.57,172.83 686,172.46C687.37,172.11 691.63,171.64 693,171.86Q694.43,172.09 700,174.88" style="vector-effect: none; fill: none; stroke: rgb(67, 152, 190); stroke-opacity: 1; stroke-width: 4px; opacity: 1;"/></g><g class="points"/><g class="text"/></g><g class="trace scatter trace969946" style="stroke-miterlimit: 2; opacity: 1;"><g class="fills"/><g class="errorbars"/><g class="lines"><path class="js-line" d="M0,493.31Q5.6,493.31 7,493.31C8.4,493.31 12.6,493.31 14,493.31C15.4,493.31 19.6,493.31 21,493.31C22.4,493.31 26.6,493.31 28,493.31C29.4,493.31 33.6,493.31 35,493.31C36.4,493.31 40.6,493.31 42,493.31C43.4,493.31 47.6,493.31 49,493.31C50.4,493.31 54.6,493.31 56,493.31C57.4,493.31 61.6,493.31 63,493.31C64.4,493.31 68.6,493.31 70,493.31C71.4,493.31 75.6,493.31 77,493.31C78.4,493.31 82.6,493.31 84,493.31C85.4,493.31 89.6,493.31 91,493.31C92.4,493.31 96.6,493.31 98,493.31C99.4,493.31 103.6,493.31 105,493.31C106.4,493.31 110.6,493.31 112,493.31C113.4,493.31 117.6,493.31 119,493.31C120.4,493.31 124.6,493.31 126,493.31C127.4,493.31 131.6,493.31 133,493.31C134.4,493.31 138.6,493.31 140,493.31C141.4,493.31 145.6,493.31 147,493.31C148.4,493.31 152.6,493.31 154,493.31C155.4,493.31 159.6,493.31 161,493.31C162.4,493.31 166.6,493.31 168,493.31C169.4,493.31 173.6,493.31 175,493.31C176.4,493.31 180.6,493.31 182,493.31C183.4,493.31 187.6,493.31 189,493.31C190.4,493.31 194.6,493.31 196,493.31C197.4,493.31 201.6,493.31 203,493.31C204.4,493.31 208.6,493.31 210,493.31C211.4,493.31 215.6,493.31 217,493.31C218.4,493.31 222.6,493.31 224,493.31C225.4,493.31 229.6,493.31 231,493.31C232.4,493.31 236.6,493.31 238,493.31C239.4,493.31 243.6,493.31 245,493.31C246.4,493.31 250.6,493.31 252,493.31C253.4,493.31 257.6,493.31 259,493.31C260.4,493.31 264.6,493.31 266,493.31C267.4,493.31 271.6,493.31 273,493.31C274.4,493.31 278.6,493.31 280,493.31C281.4,493.31 285.6,493.31 287,493.31C288.4,493.31 292.6,493.31 294,493.31C295.4,493.31 299.6,493.31 301,493.31C302.4,493.31 306.6,493.31 308,493.31C309.4,493.31 313.6,493.31 315,493.31C316.4,493.31 320.6,493.31 322,493.31C323.4,493.31 327.6,493.31 329,493.31C330.4,493.31 334.6,493.31 336,493.31C337.4,493.31 341.6,493.31 343,493.31C344.4,493.31 348.6,493.31 350,493.31C351.4,493.31 355.6,493.31 357,493.31C358.4,493.31 362.6,493.31 364,493.31C365.4,493.31 369.6,493.31 371,493.31C372.4,493.31 376.6,493.31 378,493.31C379.4,493.31 383.6,493.31 385,493.31C386.4,493.31 390.6,493.31 392,493.31C393.4,493.31 397.6,493.31 399,493.31C400.4,493.31 404.6,493.31 406,493.31C407.4,493.31 411.6,493.31 413,493.31C414.4,493.31 418.6,493.31 420,493.31C421.4,493.31 425.6,493.31 427,493.31C428.4,493.31 432.6,493.31 434,493.31C435.4,493.31 439.6,493.31 441,493.31C442.4,493.31 446.6,493.31 448,493.31C449.4,493.31 453.6,493.31 455,493.31C456.4,493.31 460.6,493.31 462,493.31C463.4,493.31 467.6,493.31 469,493.31C470.4,493.31 474.6,493.31 476,493.31C477.4,493.31 481.6,493.31 483,493.31C484.4,493.31 488.6,493.31 490,493.31C491.4,493.31 495.6,493.31 497,493.31C498.4,493.31 502.6,493.31 504,493.31C505.4,493.31 509.6,493.31 511,493.31C512.4,493.31 516.6,493.31 518,493.31C519.4,493.31 523.6,493.31 525,493.31C526.4,493.31 530.6,493.31 532,493.31C533.4,493.31 537.6,493.31 539,493.31C540.4,493.31 544.6,493.31 546,493.31C547.4,493.31 551.6,493.31 553,493.31C554.4,493.31 558.6,493.31 560,493.31C561.4,493.31 565.6,493.31 567,493.31C568.4,493.31 572.6,493.31 574,493.31C575.4,493.31 579.6,493.31 581,493.31C582.4,493.31 586.6,493.31 588,493.31C589.4,493.31 593.6,493.31 595,493.31C596.4,493.31 600.6,493.31 602,493.31C603.4,493.31 607.6,493.33 609,493.33C610.4,493.33 614.6,493.34 616,493.34C617.4,493.34 621.6,493.34 623,493.34C624.4,493.34 628.6,493.34 630,493.34C631.4,493.34 635.6,493.34 637,493.34C638.4,493.34 642.6,493.34 644,493.34C645.4,493.34 649.6,493.34 651,493.34C652.4,493.34 656.6,493.34 658,493.34C659.4,493.34 663.6,493.34 665,493.34C666.4,493.34 670.6,493.34 672,493.34C673.4,493.34 677.6,493.34 679,493.34C680.4,493.34 684.6,493.34 686,493.34C687.4,493.34 691.6,493.34 693,493.34Q694.4,493.34 700,493.36" style="vector-effect: none; fill: none; stroke: rgb(141, 190, 0); stroke-opacity: 1; stroke-width: 4px; opacity: 1;"/></g><g class="points"/><g class="text"/></g><g class="trace scatter tracea198c0" style="stroke-miterlimit: 2; opacity: 1;"><g class="fills"/><g class="errorbars"/><g class="lines"><path class="js-line" d="M441,492.3Q446.6,485.75 448,484.11C449.4,482.47 453.6,477.57 455,475.93C456.4,474.29 460.42,468.64 462,467.75C463.28,467.03 467.6,466.76 469,466.63C470.4,466.5 474.6,466.44 476,466.43C477.4,466.42 481.6,466.47 483,466.48C484.4,466.49 488.6,466.53 490,466.54C491.4,466.55 495.6,466.59 497,466.6C498.4,466.61 502.6,466.66 504,466.67C505.4,466.68 509.6,466.72 511,466.73C512.4,466.74 516.6,466.78 518,466.79C519.4,466.8 523.6,466.85 525,466.86C526.4,466.87 530.6,466.91 532,466.92C533.4,466.93 537.6,466.97 539,466.98C540.4,466.99 544.6,467.04 546,467.05C547.4,467.06 551.6,467.11 553,467.12C554.4,467.13 558.6,467.17 560,467.18C561.4,467.19 565.6,467.24 567,467.25C568.4,467.26 572.6,467.31 574,467.32C575.4,467.33 579.66,466.98 581,467.39C582.47,467.84 586.7,470.76 588,471.99C589.54,473.44 593.46,479.94 595,481.37C596.3,482.58 600.56,485.67 602,485.85C603.36,486.02 607.58,483.82 609,483.48C610.39,483.15 614.6,482.54 616,482.44C617.4,482.34 621.6,482.43 623,482.43C624.4,482.43 628.6,482.42 630,482.42C631.4,482.42 635.6,482.4 637,482.4C638.4,482.4 642.6,482.39 644,482.39C645.4,482.39 649.6,482.38 651,482.38C652.4,482.38 656.6,482.37 658,482.37C659.4,482.37 663.6,482.36 665,482.36C666.4,482.36 670.6,482.35 672,482.35C673.4,482.35 677.6,482.33 679,482.33C680.4,482.33 684.6,482.36 686,482.32C687.4,482.28 691.6,482.04 693,481.92Q694.4,481.8 700,481.08" style="vector-effect: none; fill: none; stroke: rgb(255, 237, 128); stroke-opacity: 1; stroke-width: 4px; opacity: 1;"/></g><g class="points"/><g class="text"/></g><g class="trace scatter trace2b59e5" style="stroke-miterlimit: 2; opacity: 1;"><g class="fills"/><g class="errorbars"/><g class="lines"><path class="js-line" d="M0,491.24Q5.6,491.24 7,491.24C8.4,491.24 12.6,491.24 14,491.24C15.4,491.24 19.6,491.24 21,491.24C22.4,491.24 26.6,491.24 28,491.24C29.4,491.24 33.6,491.24 35,491.24C36.4,491.24 40.6,491.24 42,491.24C43.4,491.24 47.6,491.24 49,491.24C50.4,491.24 54.6,491.24 56,491.24C57.4,491.24 61.6,491.24 63,491.24C64.4,491.24 68.6,491.24 70,491.24C71.4,491.24 75.6,491.24 77,491.24C78.4,491.24 82.6,491.24 84,491.24C85.4,491.24 89.6,491.24 91,491.24C92.4,491.24 96.6,491.24 98,491.24C99.4,491.24 103.6,491.24 105,491.24C106.4,491.24 110.6,491.24 112,491.24C113.4,491.24 117.6,491.24 119,491.24C120.4,491.24 124.6,491.24 126,491.24C127.4,491.24 131.6,491.24 133,491.24C134.4,491.24 138.6,491.24 140,491.24C141.4,491.24 145.6,491.24 147,491.24C148.4,491.24 152.6,491.24 154,491.24C155.4,491.24 159.6,491.24 161,491.24C162.4,491.24 166.6,491.24 168,491.24C169.4,491.24 173.6,491.24 175,491.24C176.4,491.24 180.6,491.24 182,491.24C183.4,491.24 187.6,491.24 189,491.24C190.4,491.24 194.6,491.24 196,491.24C197.4,491.24 201.6,491.24 203,491.24C204.4,491.24 208.6,491.24 210,491.24C211.4,491.24 215.6,491.24 217,491.24C218.4,491.24 222.6,491.24 224,491.24C225.4,491.24 229.6,491.24 231,491.24C232.4,491.24 236.6,491.24 238,491.24C239.4,491.24 243.6,491.24 245,491.24C246.4,491.24 250.6,491.24 252,491.24C253.4,491.24 257.6,491.24 259,491.24C260.4,491.24 264.6,491.24 266,491.24C267.4,491.24 271.6,491.24 273,491.24C274.4,491.24 278.6,491.24 280,491.24C281.4,491.24 285.6,491.24 287,491.24C288.4,491.24 292.6,491.24 294,491.24C295.4,491.24 299.6,491.24 301,491.24C302.4,491.24 306.6,491.24 308,491.24C309.4,491.24 313.6,491.24 315,491.24C316.4,491.24 320.6,491.24 322,491.24C323.4,491.24 327.6,491.24 329,491.24C330.4,491.24 334.6,491.24 336,491.24C337.4,491.24 341.6,491.24 343,491.24C344.4,491.24 348.6,491.24 350,491.24C351.4,491.24 355.6,491.24 357,491.24C358.4,491.24 362.6,491.24 364,491.24C365.4,491.24 369.6,491.24 371,491.24C372.4,491.24 376.6,491.24 378,491.24C379.4,491.24 383.6,491.24 385,491.24C386.4,491.24 390.6,491.24 392,491.24C393.4,491.24 397.6,491.24 399,491.24C400.4,491.24 404.6,491.24 406,491.24C407.4,491.24 411.6,491.24 413,491.24C414.4,491.24 418.6,491.24 420,491.24C421.4,491.24 425.6,491.24 427,491.24C428.4,491.24 432.6,491.24 434,491.24C435.4,491.24 439.6,491.24 441,491.24C442.4,491.24 446.6,491.24 448,491.24C449.4,491.24 453.6,491.24 455,491.24C456.4,491.24 460.6,491.24 462,491.24C463.4,491.24 467.6,491.24 469,491.24C470.4,491.24 474.6,491.24 476,491.24C477.4,491.24 481.6,491.24 483,491.24C484.4,491.24 488.6,491.24 490,491.24C491.4,491.24 495.6,491.24 497,491.24C498.4,491.24 502.6,491.24 504,491.24C505.4,491.24 509.6,491.24 511,491.24C512.4,491.24 516.6,491.24 518,491.24C519.4,491.24 523.6,491.24 525,491.24C526.4,491.24 530.6,491.24 532,491.24C533.4,491.24 537.6,491.24 539,491.24C540.4,491.24 544.6,491.24 546,491.24C547.4,491.24 551.6,491.24 553,491.24C554.4,491.24 558.6,491.24 560,491.24C561.4,491.24 565.6,491.24 567,491.24C568.4,491.24 572.6,491.24 574,491.24Q575.4,491.24 581,491.24" style="vector-effect: none; fill: none; stroke: rgb(34, 125, 40); stroke-opacity: 1; stroke-width: 4px; opacity: 1;"/></g><g class="points"/><g class="text"/></g><g class="trace scatter trace805c08" style="stroke-miterlimit: 2; opacity: 1;"><g class="fills"/><g class="errorbars"/><g class="lines"><path class="js-line" d="M203,494Q208.59,492.72 210,492.58C211.39,492.44 215.6,492.58 217,492.58C218.4,492.58 222.6,492.58 224,492.58C225.4,492.58 229.6,492.58 231,492.58C232.4,492.58 236.6,492.58 238,492.58C239.4,492.58 243.6,492.58 245,492.58C246.4,492.58 250.6,492.58 252,492.58C253.4,492.58 257.6,492.58 259,492.58C260.4,492.58 264.6,492.58 266,492.58C267.4,492.58 271.6,492.58 273,492.58C274.4,492.58 278.6,492.58 280,492.58C281.4,492.58 285.6,492.58 287,492.58C288.4,492.58 292.6,492.58 294,492.58C295.4,492.58 299.6,492.58 301,492.58C302.4,492.58 306.6,492.58 308,492.58C309.4,492.58 313.6,492.58 315,492.58C316.4,492.58 320.6,492.58 322,492.58C323.4,492.58 327.6,492.58 329,492.58C330.4,492.58 334.6,492.58 336,492.58C337.4,492.58 341.6,492.58 343,492.58C344.4,492.58 348.6,492.58 350,492.58C351.4,492.58 355.6,492.58 357,492.58C358.4,492.58 362.6,492.58 364,492.58C365.4,492.58 369.6,492.58 371,492.58C372.4,492.58 376.6,492.58 378,492.58C379.4,492.58 383.6,492.58 385,492.58C386.4,492.58 390.6,492.58 392,492.58C393.4,492.58 397.6,492.58 399,492.58C400.4,492.58 404.6,492.58 406,492.58C407.4,492.58 411.6,492.58 413,492.58C414.4,492.58 418.6,492.58 420,492.58C421.4,492.58 425.6,492.58 427,492.58C428.4,492.58 432.6,492.58 434,492.58C435.4,492.58 439.6,492.58 441,492.58C442.4,492.58 446.6,492.58 448,492.58C449.4,492.58 453.6,492.58 455,492.58C456.4,492.58 460.6,492.58 462,492.58C463.4,492.58 467.6,492.58 469,492.58C470.4,492.58 474.6,492.58 476,492.58C477.4,492.58 481.6,492.58 483,492.58C484.4,492.58 488.6,492.58 490,492.58C491.4,492.58 495.6,492.58 497,492.58C498.4,492.58 502.6,492.58 504,492.58C505.4,492.58 509.6,492.58 511,492.58C512.4,492.58 516.6,492.58 518,492.58C519.4,492.58 523.6,492.58 525,492.58C526.4,492.58 530.6,492.58 532,492.58C533.4,492.58 537.6,492.58 539,492.58C540.4,492.58 544.6,492.58 546,492.58C547.4,492.58 551.6,492.58 553,492.58C554.4,492.58 558.6,492.58 560,492.58C561.4,492.58 565.6,492.58 567,492.58C568.4,492.58 572.6,492.58 574,492.58C575.4,492.58 579.6,492.58 581,492.58C582.4,492.58 586.6,492.58 588,492.58C589.4,492.58 593.6,492.58 595,492.58C596.4,492.58 600.6,492.58 602,492.58C603.4,492.58 607.6,492.58 609,492.58C610.4,492.58 614.6,492.58 616,492.58C617.4,492.58 621.6,492.58 623,492.58C624.4,492.58 628.6,492.58 630,492.58C631.4,492.58 635.6,492.58 637,492.58C638.4,492.58 642.6,492.58 644,492.58C645.4,492.58 649.6,492.58 651,492.58C652.4,492.58 656.6,492.58 658,492.58C659.4,492.58 663.6,492.58 665,492.58C666.4,492.58 670.6,492.58 672,492.58C673.4,492.58 677.6,492.58 679,492.58C680.4,492.58 684.6,492.58 686,492.58C687.4,492.58 691.6,492.58 693,492.58Q694.4,492.58 700,492.58" style="vector-effect: none; fill: none; stroke: rgb(238, 123, 164); stroke-opacity: 1; stroke-width: 4px; opacity: 1;"/></g><g class="points"/><g class="text"/></g><g class="trace scatter tracedc7a9e" style="stroke-miterlimit: 2; opacity: 1;"><g class="fills"/><g class="errorbars"/><g class="lines"><path class="js-line" d="M0,481.1Q5.6,481.1 7,481.1C8.4,481.1 12.6,481.1 14,481.1C15.4,481.1 19.6,481.1 21,481.1C22.4,481.1 26.6,481.1 28,481.1C29.4,481.1 33.6,481.1 35,481.1C36.4,481.1 40.6,481.1 42,481.1C43.4,481.1 47.6,481.1 49,481.1C50.4,481.1 54.6,481.1 56,481.1C57.4,481.1 61.6,481.1 63,481.1C64.4,481.1 68.6,481.1 70,481.1C71.4,481.1 75.6,481.1 77,481.1C78.4,481.1 82.6,481.1 84,481.1C85.4,481.1 89.6,481.1 91,481.1C92.4,481.1 96.6,481.1 98,481.1C99.4,481.1 103.6,481.1 105,481.1C106.4,481.1 110.6,481.1 112,481.1C113.4,481.1 117.6,481.1 119,481.1C120.4,481.1 124.6,481.1 126,481.1C127.4,481.1 131.6,481.1 133,481.1C134.4,481.1 138.6,481.1 140,481.1C141.4,481.1 145.6,481.1 147,481.1C148.4,481.1 152.6,481.1 154,481.1C155.4,481.1 159.6,481.1 161,481.1C162.4,481.1 166.6,481.1 168,481.1C169.4,481.1 173.6,481.1 175,481.1C176.4,481.1 180.6,481.1 182,481.1C183.4,481.1 187.6,481.1 189,481.1C190.4,481.1 194.6,481.1 196,481.1C197.4,481.1 201.6,481.1 203,481.1C204.4,481.1 208.6,481.1 210,481.1C211.4,481.1 215.6,481.1 217,481.1C218.4,481.1 222.6,481.1 224,481.1C225.4,481.1 229.6,481.1 231,481.1C232.4,481.1 236.6,481.1 238,481.1C239.4,481.1 243.6,481.1 245,481.1C246.4,481.1 250.6,481.1 252,481.1C253.4,481.1 257.6,481.1 259,481.1C260.4,481.1 264.6,481.1 266,481.1C267.4,481.1 271.6,481.1 273,481.1C274.4,481.1 278.6,481.1 280,481.1C281.4,481.1 285.6,481.1 287,481.1C288.4,481.1 292.6,481.1 294,481.1C295.4,481.1 299.6,481.1 301,481.1C302.4,481.1 306.6,481.1 308,481.1C309.4,481.1 313.6,481.1 315,481.1C316.4,481.1 320.6,481.1 322,481.1C323.4,481.1 327.6,481.1 329,481.1C330.4,481.1 334.6,481.1 336,481.1C337.4,481.1 341.6,481.1 343,481.1C344.4,481.1 348.6,481.1 350,481.1C351.4,481.1 355.6,481.1 357,481.1C358.4,481.1 362.6,481.1 364,481.1C365.4,481.1 369.6,481.1 371,481.1C372.4,481.1 376.6,481.1 378,481.1C379.4,481.1 383.6,481.1 385,481.1C386.4,481.1 390.6,481.1 392,481.1C393.4,481.1 397.6,481.1 399,481.1C400.4,481.1 404.6,481.1 406,481.1C407.4,481.1 411.6,481.1 413,481.1C414.4,481.1 418.69,480.59 420,481.1C421.52,481.69 425.59,486.21 427,487.44Q428.39,488.66 434,493.36" style="vector-effect: none; fill: none; stroke: rgb(192, 113, 88); stroke-opacity: 1; stroke-width: 4px; opacity: 1;"/></g><g class="points"/><g class="text"/></g><g class="trace scatter traced50d08" style="stroke-miterlimit: 2; opacity: 1;"><g class="fills"/><g class="errorbars"/><g class="lines"><path class="js-line" d="M476,492.63Q481.6,492.52 483,492.5C484.4,492.48 488.6,492.42 490,492.4C491.4,492.38 495.6,492.33 497,492.31C498.4,492.29 502.6,492.23 504,492.21C505.4,492.19 509.6,492.14 511,492.12C512.4,492.1 516.6,492.05 518,492.03C519.4,492.01 523.6,491.95 525,491.93C526.4,491.91 530.6,491.86 532,491.84C533.4,491.82 537.6,491.76 539,491.74C540.4,491.72 544.6,491.67 546,491.65C547.4,491.63 551.6,491.58 553,491.56C554.4,491.54 558.6,491.48 560,491.46C561.4,491.44 565.6,491.39 567,491.37C568.4,491.35 572.6,491.29 574,491.27C575.4,491.25 579.6,491.2 581,491.18C582.4,491.15 586.6,491.06 588,491.02C589.4,490.98 593.6,490.81 595,490.78C596.4,490.75 600.6,490.72 602,490.72C603.4,490.72 607.6,490.8 609,490.82C610.4,490.84 614.6,490.87 616,490.88C617.4,490.89 621.6,490.9 623,490.9C624.4,490.91 628.6,490.92 630,490.93C631.4,490.93 635.6,490.95 637,490.95C638.4,490.95 642.6,490.97 644,490.97C645.4,490.98 649.6,490.99 651,491C652.4,491 656.6,491.02 658,491.02C659.4,491.03 663.6,491.04 665,491.05C666.4,491.05 670.6,491.07 672,491.07C673.4,491.07 677.6,491.09 679,491.09C680.4,491.1 684.6,491.09 686,491.12C687.4,491.15 691.6,491.31 693,491.4Q694.4,491.49 700,492.03" style="vector-effect: none; fill: none; stroke: rgb(0, 155, 194); stroke-opacity: 1; stroke-width: 4px; opacity: 1;"/></g><g class="points"/><g class="text"/></g><g class="trace scatter trace494a1b" style="stroke-miterlimit: 2; opacity: 1;"><g class="fills"/><g class="errorbars"/><g class="lines"><path class="js-line" d="M588,492.58Q593.57,488.84 595,488.09C596.37,487.37 600.57,485.44 602,485.15C603.37,484.87 607.65,485.53 609,485.15C610.46,484.74 614.76,482.2 616,480.87C617.69,479.05 621.6,470.07 623,467.37C624.4,464.67 628.6,456.57 630,453.87C631.4,451.17 635.6,443.07 637,440.37C638.4,437.67 642.6,429.57 644,426.87C645.4,424.17 649.6,416.07 651,413.37C652.4,410.67 656.6,402.57 658,399.87C659.4,397.17 663.6,389.07 665,386.37C666.4,383.67 670.6,375.57 672,372.87C673.4,370.17 677.6,362.07 679,359.37C680.4,356.67 684.46,348.16 686,345.87C687.3,343.94 691.41,338.43 693,337.66Q694.28,337.04 700,337.37" style="vector-effect: none; fill: none; stroke: rgb(100, 218, 126); stroke-opacity: 1; stroke-width: 4px; opacity: 1;"/></g><g class="points"/><g class="text"/></g><g class="trace scatter trace210a2d" style="stroke-miterlimit: 2; opacity: 1;"><g class="fills"/><g class="errorbars"/><g class="lines"><path class="js-line" d="M588,493.13Q593.6,493.13 595,493.13C596.4,493.13 600.6,493.13 602,493.13C603.4,493.13 607.6,493.13 609,493.13C610.4,493.13 614.6,493.13 616,493.13C617.4,493.13 621.6,493.13 623,493.13C624.4,493.13 628.6,493.13 630,493.13C631.4,493.13 635.6,493.13 637,493.13C638.4,493.13 642.6,493.13 644,493.13C645.4,493.13 649.6,493.13 651,493.13C652.4,493.13 656.6,493.13 658,493.13C659.4,493.13 663.6,493.13 665,493.13C666.4,493.13 670.6,493.13 672,493.13C673.4,493.13 677.6,493.13 679,493.13C680.4,493.13 684.6,493.13 686,493.13C687.4,493.13 691.6,493.13 693,493.13Q694.4,493.13 700,493.13" style="vector-effect: none; fill: none; stroke: rgb(0, 77, 64); stroke-opacity: 1; stroke-width: 4px; opacity: 1;"/></g><g class="points"/><g class="text"/></g><g class="trace scatter trace78a3cd" style="stroke-miterlimit: 2; opacity: 1;"><g class="fills"/><g class="errorbars"/><g class="lines"><path class="js-line" d="M0,310.14Q5.6,308.4 7,307.96C8.4,307.52 12.59,306.15 14,305.77C15.39,305.4 19.59,304.34 21,304.21C22.39,304.08 26.6,304.37 28,304.44C29.4,304.51 33.6,304.78 35,304.92C36.4,305.06 40.6,305.67 42,305.82C43.4,305.96 47.62,306.56 49,306.37C50.42,306.18 54.6,304.35 56,303.85C57.4,303.35 61.6,301.83 63,301.33C64.4,300.83 68.6,299.31 70,298.81C71.4,298.3 75.6,296.79 77,296.28C78.4,295.78 82.6,294.26 84,293.76C85.4,293.26 89.6,291.74 91,291.24C92.4,290.73 96.6,289.22 98,288.71C99.4,288.21 103.6,286.69 105,286.19C106.4,285.69 110.6,284.17 112,283.67C113.4,283.16 117.6,281.65 119,281.14C120.4,280.64 124.6,279.12 126,278.62C127.4,278.11 131.6,276.6 133,276.09C134.4,275.59 138.6,274.07 140,273.57C141.4,273.06 145.6,271.55 147,271.04C148.4,270.53 152.6,269.02 154,268.51C155.4,268.01 159.6,266.49 161,265.99C162.4,265.49 166.59,263.93 168,263.48C169.39,263.03 173.6,261.85 175,261.46C176.4,261.07 180.6,259.93 182,259.56C183.4,259.19 187.6,258.11 189,257.76C190.4,257.41 194.6,256.34 196,256.03C197.4,255.72 201.6,254.86 203,254.65C204.4,254.44 208.62,254.24 210,253.93C211.42,253.61 215.6,251.99 217,251.48C218.4,250.96 222.6,249.33 224,248.79C225.4,248.25 229.6,246.63 231,246.09C232.4,245.55 236.6,243.93 238,243.39C239.4,242.85 243.6,241.23 245,240.69C246.4,240.15 250.6,238.53 252,237.99C253.4,237.45 257.6,235.83 259,235.29C260.4,234.75 264.6,233.13 266,232.59C267.4,232.05 271.6,230.43 273,229.89C274.4,229.35 278.6,227.73 280,227.19C281.4,226.65 285.6,225.03 287,224.49C288.4,223.95 292.6,222.32 294,221.78C295.4,221.24 299.6,219.62 301,219.08C302.4,218.54 306.6,216.91 308,216.37C309.4,215.83 313.6,214.21 315,213.67C316.4,213.13 320.6,211.5 322,210.96C323.4,210.42 327.6,208.79 329,208.25C330.4,207.71 334.6,206.09 336,205.55C337.4,205.01 341.6,203.37 343,202.84C344.4,202.31 348.59,200.73 350,200.25C351.39,199.78 355.6,198.51 357,198.08C358.4,197.65 362.6,196.36 364,195.93C365.4,195.5 369.6,194.19 371,193.75C372.4,193.31 376.6,191.99 378,191.55C379.4,191.11 383.6,189.76 385,189.31C386.4,188.86 390.6,187.49 392,187.03C393.4,186.57 397.6,185.17 399,184.69C400.4,184.21 404.6,182.76 406,182.26C407.4,181.76 411.6,180.23 413,179.69C414.4,179.15 418.6,177.43 420,176.88C421.4,176.34 425.6,174.76 427,174.23C428.4,173.7 432.63,172.21 434,171.55C435.43,170.86 439.67,168.46 441,167.41C442.48,166.24 446.6,161.59 448,160.14C449.4,158.69 453.6,154.33 455,152.88C456.4,151.43 460.48,146.64 462,145.62C463.31,144.74 467.58,143.28 469,142.84C470.38,142.41 474.6,141.56 476,141.28C477.4,141 481.6,140.26 483,140C484.4,139.74 488.6,138.98 490,138.72C491.4,138.46 495.6,137.7 497,137.44C498.4,137.18 502.6,136.42 504,136.16C505.4,135.9 509.6,135.13 511,134.87C512.4,134.61 516.6,133.85 518,133.59C519.4,133.33 523.6,132.56 525,132.3C526.4,132.04 530.6,131.27 532,131.01C533.4,130.75 537.6,129.99 539,129.73C540.4,129.47 544.6,128.7 546,128.44C547.4,128.18 551.6,127.41 553,127.15C554.4,126.89 558.6,126.12 560,125.86C561.4,125.6 565.6,124.83 567,124.57C568.4,124.31 572.6,123.54 574,123.28C575.4,123.02 579.66,122.57 581,121.99C582.48,121.35 586.71,118.19 588,116.85C589.55,115.24 593.51,108.34 595,106.54C596.33,104.94 600.47,100.41 602,99.57C603.31,98.85 607.61,98.36 609,97.97C610.41,97.58 614.61,96.2 616,95.67C617.41,95.13 621.6,93.21 623,92.59C624.4,91.97 628.6,90.12 630,89.5C631.4,88.88 635.6,87.04 637,86.42C638.4,85.8 642.6,83.95 644,83.33C645.4,82.71 649.6,80.86 651,80.24C652.4,79.62 656.6,77.78 658,77.16C659.4,76.54 663.6,74.69 665,74.07C666.4,73.45 670.6,71.61 672,70.99C673.4,70.37 677.6,68.52 679,67.9C680.4,67.28 684.59,65.4 686,64.81C687.39,64.23 691.59,62.56 693,62.05Q694.39,61.54 700,59.71" style="vector-effect: none; fill: none; stroke: rgb(121, 236, 249); stroke-opacity: 1; stroke-width: 4px; opacity: 1;"/></g><g class="points"/><g class="text"/></g></g></g><g class="overplot"/><path class="xlines-above crisp" d="M79,620.5H781M79,99.5H781" style="fill: none; stroke-width: 1px; stroke: rgb(0, 0, 0); stroke-opacity: 1;"/><path class="ylines-above crisp" d="M79.5,100V620M780.5,100V620" style="fill: none; stroke-width: 1px; stroke: rgb(0, 0, 0); stroke-opacity: 1;"/><g class="overlines-above"/><g class="xaxislayer-above"><path class="xtick ticks crisp" d="M0,621v5M0,99v-5" transform="translate(80,0)" style="stroke: rgb(0, 0, 0); stroke-opacity: 1; stroke-width: 1px;"/><path class="xtick ticks crisp" d="M0,621v5M0,99v-5" transform="translate(167.5,0)" style="stroke: rgb(0, 0, 0); stroke-opacity: 1; stroke-width: 1px;"/><path class="xtick ticks crisp" d="M0,621v5M0,99v-5" transform="translate(255,0)" style="stroke: rgb(0, 0, 0); stroke-opacity: 1; stroke-width: 1px;"/><path class="xtick ticks crisp" d="M0,621v5M0,99v-5" transform="translate(342.5,0)" style="stroke: rgb(0, 0, 0); stroke-opacity: 1; stroke-width: 1px;"/><path class="xtick ticks crisp" d="M0,621v5M0,99v-5" transform="translate(430,0)" style="stroke: rgb(0, 0, 0); stroke-opacity: 1; stroke-width: 1px;"/><path class="xtick ticks crisp" d="M0,621v5M0,99v-5" transform="translate(517.5,0)" style="stroke: rgb(0, 0, 0); stroke-opacity: 1; stroke-width: 1px;"/><path class="xtick ticks crisp" d="M0,621v5M0,99v-5" transform="translate(605,0)" style="stroke: rgb(0, 0, 0); stroke-opacity: 1; stroke-width: 1px;"/><path class="xtick ticks crisp" d="M0,621v5M0,99v-5" transform="translate(692.5,0)" style="stroke: rgb(0, 0, 0); stroke-opacity: 1; stroke-width: 1px;"/><path class="xtick ticks crisp" d="M0,621v5M0,99v-5" transform="translate(780,0)" style="stroke: rgb(0, 0, 0); stroke-opacity: 1; stroke-width: 1px;"/><g class="xtick"><text text-anchor="middle" x="0" y="640.4" transform="translate(80,0)" style="font-family: sans-serif, 'Open Sans', verdana, arial; font-size: 12px; fill: rgb(0, 0, 0); fill-opacity: 1; white-space: pre; opacity: 1;">0</text></g><g class="xtick"><text text-anchor="middle" x="0" y="640.4" style="font-family: sans-serif, 'Open Sans', verdana, arial; font-size: 12px; fill: rgb(0, 0, 0); fill-opacity: 1; white-space: pre; opacity: 1;" transform="translate(167.5,0)">2</text></g><g class="xtick"><text text-anchor="middle" x="0" y="640.4" style="font-family: sans-serif, 'Open Sans', verdana, arial; font-size: 12px; fill: rgb(0, 0, 0); fill-opacity: 1; white-space: pre; opacity: 1;" transform="translate(255,0)">4</text></g><g class="xtick"><text text-anchor="middle" x="0" y="640.4" style="font-family: sans-serif, 'Open Sans', verdana, arial; font-size: 12px; fill: rgb(0, 0, 0); fill-opacity: 1; white-space: pre; opacity: 1;" transform="translate(342.5,0)">6</text></g><g class="xtick"><text text-anchor="middle" x="0" y="640.4" style="font-family: sans-serif, 'Open Sans', verdana, arial; font-size: 12px; fill: rgb(0, 0, 0); fill-opacity: 1; white-space: pre; opacity: 1;" transform="translate(430,0)">8</text></g><g class="xtick"><text text-anchor="middle" x="0" y="640.4" style="font-family: sans-serif, 'Open Sans', verdana, arial; font-size: 12px; fill: rgb(0, 0, 0); fill-opacity: 1; white-space: pre; opacity: 1;" transform="translate(517.5,0)">10</text></g><g class="xtick"><text text-anchor="middle" x="0" y="640.4" style="font-family: sans-serif, 'Open Sans', verdana, arial; font-size: 12px; fill: rgb(0, 0, 0); fill-opacity: 1; white-space: pre; opacity: 1;" transform="translate(605,0)">12</text></g><g class="xtick"><text text-anchor="middle" x="0" y="640.4" style="font-family: sans-serif, 'Open Sans', verdana, arial; font-size: 12px; fill: rgb(0, 0, 0); fill-opacity: 1; white-space: pre; opacity: 1;" transform="translate(692.5,0)">14</text></g><g class="xtick"><text text-anchor="middle" x="0" y="640.4" style="font-family: sans-serif, 'Open Sans', verdana, arial; font-size: 12px; fill: rgb(0, 0, 0); fill-opacity: 1; white-space: pre; opacity: 1;" transform="translate(780,0)">16</text></g></g><g class="yaxislayer-above"><path class="ytick ticks crisp" d="M79,0h-5M781,0h5" transform="translate(0,594.4300000000001)" style="stroke: rgb(0, 0, 0); stroke-opacity: 1; stroke-width: 1px;"/><path class="ytick ticks crisp" d="M79,0h-5M781,0h5" transform="translate(0,506.28)" style="stroke: rgb(0, 0, 0); stroke-opacity: 1; stroke-width: 1px;"/><path class="ytick ticks crisp" d="M79,0h-5M781,0h5" transform="translate(0,418.13)" style="stroke: rgb(0, 0, 0); stroke-opacity: 1; stroke-width: 1px;"/><path class="ytick ticks crisp" d="M79,0h-5M781,0h5" transform="translate(0,329.98)" style="stroke: rgb(0, 0, 0); stroke-opacity: 1; stroke-width: 1px;"/><path class="ytick ticks crisp" d="M79,0h-5M781,0h5" transform="translate(0,241.83)" style="stroke: rgb(0, 0, 0); stroke-opacity: 1; stroke-width: 1px;"/><path class="ytick ticks crisp" d="M79,0h-5M781,0h5" transform="translate(0,153.68)" style="stroke: rgb(0, 0, 0); stroke-opacity: 1; stroke-width: 1px;"/><g class="ytick"><text text-anchor="end" x="71.6" y="4.199999999999999" transform="translate(0,594.4300000000001)" style="font-family: sans-serif, 'Open Sans', verdana, arial; font-size: 12px; fill: rgb(0, 0, 0); fill-opacity: 1; white-space: pre; opacity: 1;">0</text></g><g class="ytick"><text text-anchor="end" x="71.6" y="4.199999999999999" style="font-family: sans-serif, 'Open Sans', verdana, arial; font-size: 12px; fill: rgb(0, 0, 0); fill-opacity: 1; white-space: pre; opacity: 1;" transform="translate(0,506.28)">10</text></g><g class="ytick"><text text-anchor="end" x="71.6" y="4.199999999999999" style="font-family: sans-serif, 'Open Sans', verdana, arial; font-size: 12px; fill: rgb(0, 0, 0); fill-opacity: 1; white-space: pre; opacity: 1;" transform="translate(0,418.13)">20</text></g><g class="ytick"><text text-anchor="end" x="71.6" y="4.199999999999999" style="font-family: sans-serif, 'Open Sans', verdana, arial; font-size: 12px; fill: rgb(0, 0, 0); fill-opacity: 1; white-space: pre; opacity: 1;" transform="translate(0,329.98)">30</text></g><g class="ytick"><text text-anchor="end" x="71.6" y="4.199999999999999" style="font-family: sans-serif, 'Open Sans', verdana, arial; font-size: 12px; fill: rgb(0, 0, 0); fill-opacity: 1; white-space: pre; opacity: 1;" transform="translate(0,241.83)">40</text></g><g class="ytick"><text text-anchor="end" x="71.6" y="4.199999999999999" style="font-family: sans-serif, 'Open Sans', verdana, arial; font-size: 12px; fill: rgb(0, 0, 0); fill-opacity: 1; white-space: pre; opacity: 1;" transform="translate(0,153.68)">50</text></g></g><g class="overaxes-above"/></g></g><g class="polarlayer"/><g class="smithlayer"/><g class="ternarylayer"/><g class="geolayer"/><g class="funnelarealayer"/><g class="pielayer"/><g class="iciclelayer"/><g class="treemaplayer"/><g class="sunburstlayer"/><g class="glimages"/><defs id="topdefs-3049b1"><g class="clips"/><clipPath id="legend3049b1"><rect width="161" height="447" x="1" y="1"/></clipPath></defs><g class="layer-above"><g class="imagelayer"/><g class="shapelayer"/></g><g class="infolayer"><g class="legend" pointer-events="all" transform="translate(794,100)"><rect class="bg" shape-rendering="crispEdges" width="162" height="448" x="0.5" y="0.5" style="stroke: rgb(255, 255, 255); stroke-opacity: 0; fill: rgb(255, 255, 255); fill-opacity: 0; stroke-width: 1px;"/><g class="scrollbox" transform="" clip-path="url(#legend3049b1)"><g class="groups" transform=""><g class="traces" transform="translate(1,15.5)" style="opacity: 1;"><text class="legendtext" text-anchor="start" x="40" y="4.680000000000001" style="font-family: sans-serif, 'Open Sans', verdana, arial; font-size: 12px; fill: rgb(0, 0, 0); fill-opacity: 1; white-space: pre;">AqueousSolution</text><g class="layers" style="opacity: 1;"><g class="legendfill"/><g class="legendlines"><path class="js-line" d="M5,0h30" style="fill: none; stroke: rgb(121, 236, 249); stroke-opacity: 1; stroke-width: 4px;"/></g><g class="legendsymbols"><g class="legendpoints"/></g></g><rect class="legendtoggle" x="0" y="-9.5" width="155.3828125" height="19" style="fill: rgb(0, 0, 0); fill-opacity: 0;"/></g><g class="traces" transform="translate(1,34.5)" style="opacity: 1;"><text class="legendtext" text-anchor="start" x="40" y="4.680000000000001" style="font-family: sans-serif, 'Open Sans', verdana, arial; font-size: 12px; fill: rgb(0, 0, 0); fill-opacity: 1; white-space: pre;">T_Rutile</text><g class="layers" style="opacity: 1;"><g class="legendfill"/><g class="legendlines"><path class="js-line" d="M5,0h30" style="fill: none; stroke: rgb(0, 77, 64); stroke-opacity: 1; stroke-width: 4px;"/></g><g class="legendsymbols"><g class="legendpoints"/></g></g><rect class="legendtoggle" x="0" y="-9.5" width="155.3828125" height="19" style="fill: rgb(0, 0, 0); fill-opacity: 0;"/></g><g class="traces" transform="translate(1,53.5)" style="opacity: 1;"><text class="legendtext" text-anchor="start" x="40" y="4.680000000000001" style="font-family: sans-serif, 'Open Sans', verdana, arial; font-size: 12px; fill: rgb(0, 0, 0); fill-opacity: 1; white-space: pre;">SH_Silica-am</text><g class="layers" style="opacity: 1;"><g class="legendfill"/><g class="legendlines"><path class="js-line" d="M5,0h30" style="fill: none; stroke: rgb(100, 218, 126); stroke-opacity: 1; stroke-width: 4px;"/></g><g class="legendsymbols"><g class="legendpoints"/></g></g><rect class="legendtoggle" x="0" y="-9.5" width="155.3828125" height="19" style="fill: rgb(0, 0, 0); fill-opacity: 0;"/></g><g class="traces" transform="translate(1,72.5)" style="opacity: 1;"><text class="legendtext" text-anchor="start" x="40" y="4.680000000000001" style="font-family: sans-serif, 'Open Sans', verdana, arial; font-size: 12px; fill: rgb(0, 0, 0); fill-opacity: 1; white-space: pre;">Chabasite-Na</text><g class="layers" style="opacity: 1;"><g class="legendfill"/><g class="legendlines"><path class="js-line" d="M5,0h30" style="fill: none; stroke: rgb(0, 155, 194); stroke-opacity: 1; stroke-width: 4px;"/></g><g class="legendsymbols"><g class="legendpoints"/></g></g><rect class="legendtoggle" x="0" y="-9.5" width="155.3828125" height="19" style="fill: rgb(0, 0, 0); fill-opacity: 0;"/></g><g class="traces" transform="translate(1,91.5)" style="opacity: 1;"><text class="legendtext" text-anchor="start" x="40" y="4.680000000000001" style="font-family: sans-serif, 'Open Sans', verdana, arial; font-size: 12px; fill: rgb(0, 0, 0); fill-opacity: 1; white-space: pre;">Hydrotalcite-OH</text><g class="layers" style="opacity: 1;"><g class="legendfill"/><g class="legendlines"><path class="js-line" d="M5,0h30" style="fill: none; stroke: rgb(192, 113, 88); stroke-opacity: 1; stroke-width: 4px;"/></g><g class="legendsymbols"><g class="legendpoints"/></g></g><rect class="legendtoggle" x="0" y="-9.5" width="155.3828125" height="19" style="fill: rgb(0, 0, 0); fill-opacity: 0;"/></g><g class="traces" transform="translate(1,110.5)" style="opacity: 1;"><text class="legendtext" text-anchor="start" x="40" y="4.680000000000001" style="font-family: sans-serif, 'Open Sans', verdana, arial; font-size: 12px; fill: rgb(0, 0, 0); fill-opacity: 1; white-space: pre;">FH_Ferrihydrite-mc</text><g class="layers" style="opacity: 1;"><g class="legendfill"/><g class="legendlines"><path class="js-line" d="M5,0h30" style="fill: none; stroke: rgb(238, 123, 164); stroke-opacity: 1; stroke-width: 4px;"/></g><g class="legendsymbols"><g class="legendpoints"/></g></g><rect class="legendtoggle" x="0" y="-9.5" width="155.3828125" height="19" style="fill: rgb(0, 0, 0); fill-opacity: 0;"/></g><g class="traces" transform="translate(1,129.5)" style="opacity: 1;"><text class="legendtext" text-anchor="start" x="40" y="4.680000000000001" style="font-family: sans-serif, 'Open Sans', verdana, arial; font-size: 12px; fill: rgb(0, 0, 0); fill-opacity: 1; white-space: pre;">CTS_Titanite</text><g class="layers" style="opacity: 1;"><g class="legendfill"/><g class="legendlines"><path class="js-line" d="M5,0h30" style="fill: none; stroke: rgb(34, 125, 40); stroke-opacity: 1; stroke-width: 4px;"/></g><g class="legendsymbols"><g class="legendpoints"/></g></g><rect class="legendtoggle" x="0" y="-9.5" width="155.3828125" height="19" style="fill: rgb(0, 0, 0); fill-opacity: 0;"/></g><g class="traces" transform="translate(1,148.5)" style="opacity: 1;"><text class="legendtext" text-anchor="start" x="40" y="4.680000000000001" style="font-family: sans-serif, 'Open Sans', verdana, arial; font-size: 12px; fill: rgb(0, 0, 0); fill-opacity: 1; white-space: pre;">C$H2_Gypsum</text><g class="layers" style="opacity: 1;"><g class="legendfill"/><g class="legendlines"><path class="js-line" d="M5,0h30" style="fill: none; stroke: rgb(255, 237, 128); stroke-opacity: 1; stroke-width: 4px;"/></g><g class="legendsymbols"><g class="legendpoints"/></g></g><rect class="legendtoggle" x="0" y="-9.5" width="155.3828125" height="19" style="fill: rgb(0, 0, 0); fill-opacity: 0;"/></g><g class="traces" transform="translate(1,167.5)" style="opacity: 1;"><text class="legendtext" text-anchor="start" x="40" y="4.680000000000001" style="font-family: sans-serif, 'Open Sans', verdana, arial; font-size: 12px; fill: rgb(0, 0, 0); fill-opacity: 1; white-space: pre;">Apatite</text><g class="layers" style="opacity: 1;"><g class="legendfill"/><g class="legendlines"><path class="js-line" d="M5,0h30" style="fill: none; stroke: rgb(141, 190, 0); stroke-opacity: 1; stroke-width: 4px;"/></g><g class="legendsymbols"><g class="legendpoints"/></g></g><rect class="legendtoggle" x="0" y="-9.5" width="155.3828125" height="19" style="fill: rgb(0, 0, 0); fill-opacity: 0;"/></g><g class="traces" transform="translate(1,186.5)" style="opacity: 1;"><text class="legendtext" text-anchor="start" x="40" y="4.680000000000001" style="font-family: sans-serif, 'Open Sans', verdana, arial; font-size: 12px; fill: rgb(0, 0, 0); fill-opacity: 1; white-space: pre;">Calcite</text><g class="layers" style="opacity: 1;"><g class="legendfill"/><g class="legendlines"><path class="js-line" d="M5,0h30" style="fill: none; stroke: rgb(67, 152, 190); stroke-opacity: 1; stroke-width: 4px;"/></g><g class="legendsymbols"><g class="legendpoints"/></g></g><rect class="legendtoggle" x="0" y="-9.5" width="155.3828125" height="19" style="fill: rgb(0, 0, 0); fill-opacity: 0;"/></g><g class="traces" transform="translate(1,205.5)" style="opacity: 1;"><text class="legendtext" text-anchor="start" x="40" y="4.680000000000001" style="font-family: sans-serif, 'Open Sans', verdana, arial; font-size: 12px; fill: rgb(0, 0, 0); fill-opacity: 1; white-space: pre;">MonocarbonateH11</text><g class="layers" style="opacity: 1;"><g class="legendfill"/><g class="legendlines"><path class="js-line" d="M5,0h30" style="fill: none; stroke: rgb(108, 117, 253); stroke-opacity: 1; stroke-width: 4px;"/></g><g class="legendsymbols"><g class="legendpoints"/></g></g><rect class="legendtoggle" x="0" y="-9.5" width="155.3828125" height="19" style="fill: rgb(0, 0, 0); fill-opacity: 0;"/></g><g class="traces" transform="translate(1,224.5)" style="opacity: 1;"><text class="legendtext" text-anchor="start" x="40" y="4.680000000000001" style="font-family: sans-serif, 'Open Sans', verdana, arial; font-size: 12px; fill: rgb(0, 0, 0); fill-opacity: 1; white-space: pre;">HemicarbonateH12</text><g class="layers" style="opacity: 1;"><g class="legendfill"/><g class="legendlines"><path class="js-line" d="M5,0h30" style="fill: none; stroke: rgb(136, 119, 255); stroke-opacity: 1; stroke-width: 4px;"/></g><g class="legendsymbols"><g class="legendpoints"/></g></g><rect class="legendtoggle" x="0" y="-9.5" width="155.3828125" height="19" style="fill: rgb(0, 0, 0); fill-opacity: 0;"/></g><g class="traces" transform="translate(1,243.5)" style="opacity: 1;"><text class="legendtext" text-anchor="start" x="40" y="4.680000000000001" style="font-family: sans-serif, 'Open Sans', verdana, arial; font-size: 12px; fill: rgb(0, 0, 0); fill-opacity: 1; white-space: pre;">Gismondine-Ca</text><g class="layers" style="opacity: 1;"><g class="legendfill"/><g class="legendlines"><path class="js-line" d="M5,0h30" style="fill: none; stroke: rgb(0, 145, 234); stroke-opacity: 1; stroke-width: 4px;"/></g><g class="legendsymbols"><g class="legendpoints"/></g></g><rect class="legendtoggle" x="0" y="-9.5" width="155.3828125" height="19" style="fill: rgb(0, 0, 0); fill-opacity: 0;"/></g><g class="traces" transform="translate(1,262.5)" style="opacity: 1;"><text class="legendtext" text-anchor="start" x="40" y="4.680000000000001" style="font-family: sans-serif, 'Open Sans', verdana, arial; font-size: 12px; fill: rgb(0, 0, 0); fill-opacity: 1; white-space: pre;">Chabazite-Ca</text><g class="layers" style="opacity: 1;"><g class="legendfill"/><g class="legendlines"><path class="js-line" d="M5,0h30" style="fill: none; stroke: rgb(0, 176, 255); stroke-opacity: 1; stroke-width: 4px;"/></g><g class="legendsymbols"><g class="legendpoints"/></g></g><rect class="legendtoggle" x="0" y="-9.5" width="155.3828125" height="19" style="fill: rgb(0, 0, 0); fill-opacity: 0;"/></g><g class="traces" transform="translate(1,281.5)" style="opacity: 1;"><text class="legendtext" text-anchor="start" x="40" y="4.680000000000001" style="font-family: sans-serif, 'Open Sans', verdana, arial; font-size: 12px; fill: rgb(0, 0, 0); fill-opacity: 1; white-space: pre;">AH_Al-hydroxide_mic</text><g class="layers" style="opacity: 1;"><g class="legendfill"/><g class="legendlines"><path class="js-line" d="M5,0h30" style="fill: none; stroke: rgb(238, 139, 255); stroke-opacity: 1; stroke-width: 4px;"/></g><g class="legendsymbols"><g class="legendpoints"/></g></g><rect class="legendtoggle" x="0" y="-9.5" width="155.3828125" height="19" style="fill: rgb(0, 0, 0); fill-opacity: 0;"/></g><g class="traces" transform="translate(1,300.5)" style="opacity: 1;"><text class="legendtext" text-anchor="start" x="40" y="4.680000000000001" style="font-family: sans-serif, 'Open Sans', verdana, arial; font-size: 12px; fill: rgb(0, 0, 0); fill-opacity: 1; white-space: pre;">M-S-H-ss</text><g class="layers" style="opacity: 1;"><g class="legendfill"/><g class="legendlines"><path class="js-line" d="M5,0h30" style="fill: none; stroke: rgb(232, 170, 67); stroke-opacity: 1; stroke-width: 4px;"/></g><g class="legendsymbols"><g class="legendpoints"/></g></g><rect class="legendtoggle" x="0" y="-9.5" width="155.3828125" height="19" style="fill: rgb(0, 0, 0); fill-opacity: 0;"/></g><g class="traces" transform="translate(1,319.5)" style="opacity: 1;"><text class="legendtext" text-anchor="start" x="40" y="4.680000000000001" style="font-family: sans-serif, 'Open Sans', verdana, arial; font-size: 12px; fill: rgb(0, 0, 0); fill-opacity: 1; white-space: pre;">AFt-$-c-ss</text><g class="layers" style="opacity: 1;"><g class="legendfill"/><g class="legendlines"><path class="js-line" d="M5,0h30" style="fill: none; stroke: rgb(253, 165, 115); stroke-opacity: 1; stroke-width: 4px;"/></g><g class="legendsymbols"><g class="legendpoints"/></g></g><rect class="legendtoggle" x="0" y="-9.5" width="155.3828125" height="19" style="fill: rgb(0, 0, 0); fill-opacity: 0;"/></g><g class="traces" transform="translate(1,338.5)" style="opacity: 1;"><text class="legendtext" text-anchor="start" x="40" y="4.680000000000001" style="font-family: sans-serif, 'Open Sans', verdana, arial; font-size: 12px; fill: rgb(0, 0, 0); fill-opacity: 1; white-space: pre;">Straetlingite-ss</text><g class="layers" style="opacity: 1;"><g class="legendfill"/><g class="legendlines"><path class="js-line" d="M5,0h30" style="fill: none; stroke: rgb(100, 221, 23); stroke-opacity: 1; stroke-width: 4px;"/></g><g class="legendsymbols"><g class="legendpoints"/></g></g><rect class="legendtoggle" x="0" y="-9.5" width="155.3828125" height="19" style="fill: rgb(0, 0, 0); fill-opacity: 0;"/></g><g class="traces" transform="translate(1,357.5)" style="opacity: 1;"><text class="legendtext" text-anchor="start" x="40" y="4.680000000000001" style="font-family: sans-serif, 'Open Sans', verdana, arial; font-size: 12px; fill: rgb(0, 0, 0); fill-opacity: 1; white-space: pre;">C-N-K-S-H-ss</text><g class="layers" style="opacity: 1;"><g class="legendfill"/><g class="legendlines"><path class="js-line" d="M5,0h30" style="fill: none; stroke: rgb(145, 220, 143); stroke-opacity: 1; stroke-width: 4px;"/></g><g class="legendsymbols"><g class="legendpoints"/></g></g><rect class="legendtoggle" x="0" y="-9.5" width="155.3828125" height="19" style="fill: rgb(0, 0, 0); fill-opacity: 0;"/></g><g class="traces" transform="translate(1,376.5)" style="opacity: 1;"><text class="legendtext" text-anchor="start" x="40" y="4.680000000000001" style="font-family: sans-serif, 'Open Sans', verdana, arial; font-size: 12px; fill: rgb(0, 0, 0); fill-opacity: 1; white-space: pre;">Si-Hydrogarnet-ss</text><g class="layers" style="opacity: 1;"><g class="legendfill"/><g class="legendlines"><path class="js-line" d="M5,0h30" style="fill: none; stroke: rgb(253, 125, 189); stroke-opacity: 1; stroke-width: 4px;"/></g><g class="legendsymbols"><g class="legendpoints"/></g></g><rect class="legendtoggle" x="0" y="-9.5" width="155.3828125" height="19" style="fill: rgb(0, 0, 0); fill-opacity: 0;"/></g><g class="traces" transform="translate(1,395.5)" style="opacity: 1;"><text class="legendtext" text-anchor="start" x="40" y="4.680000000000001" style="font-family: sans-serif, 'Open Sans', verdana, arial; font-size: 12px; fill: rgb(0, 0, 0); fill-opacity: 1; white-space: pre;">CC_Calcined_clay</text><g class="layers" style="opacity: 1;"><g class="legendfill"/><g class="legendlines"><path class="js-line" d="M5,0h30" style="fill: none; stroke: rgb(153, 97, 50); stroke-opacity: 1; stroke-width: 4px;"/></g><g class="legendsymbols"><g class="legendpoints"/></g></g><rect class="legendtoggle" x="0" y="-9.5" width="155.3828125" height="19" style="fill: rgb(0, 0, 0); fill-opacity: 0;"/></g><g class="traces" transform="translate(1,414.5)" style="opacity: 1;"><text class="legendtext" text-anchor="start" x="40" y="4.680000000000001" style="font-family: sans-serif, 'Open Sans', verdana, arial; font-size: 12px; fill: rgb(0, 0, 0); fill-opacity: 1; white-space: pre;">C3S_Alite</text><g class="layers" style="opacity: 1;"><g class="legendfill"/><g class="legendlines"><path class="js-line" d="M5,0h30" style="fill: none; stroke: rgb(108, 108, 108); stroke-opacity: 1; stroke-width: 4px;"/></g><g class="legendsymbols"><g class="legendpoints"/></g></g><rect class="legendtoggle" x="0" y="-9.5" width="155.3828125" height="19" style="fill: rgb(0, 0, 0); fill-opacity: 0;"/></g><g class="traces" transform="translate(1,433.5)" style="opacity: 1;"><text class="legendtext" text-anchor="start" x="40" y="4.680000000000001" style="font-family: sans-serif, 'Open Sans', verdana, arial; font-size: 12px; fill: rgb(0, 0, 0); fill-opacity: 1; white-space: pre;">C2S_Belite</text><g class="layers" style="opacity: 1;"><g class="legendfill"/><g class="legendlines"><path class="js-line" d="M5,0h30" style="fill: none; stroke: rgb(73, 126, 55); stroke-opacity: 1; stroke-width: 4px;"/></g><g class="legendsymbols"><g class="legendpoints"/></g></g><rect class="legendtoggle" x="0" y="-9.5" width="155.3828125" height="19" style="fill: rgb(0, 0, 0); fill-opacity: 0;"/></g></g></g><rect class="scrollbar" rx="20" ry="3" width="0" height="0" x="0" y="0" style="fill: rgb(128, 139, 164); fill-opacity: 1;"/></g><g class="g-gtitle"><text class="gtitle" x="430" y="50" text-anchor="middle" dy="0em" style="font-family: sans-serif, 'Open Sans', verdana, arial; font-size: 20px; fill: rgb(0, 0, 0); opacity: 1; font-weight: normal; white-space: pre;"><tspan style="font-weight:bold">CO2|salt ingress cement degradation</tspan></text></g><g class="g-xtitle"><text class="xtitle" x="430" y="670.500390625" text-anchor="middle" style="font-family: sans-serif, 'Open Sans', verdana, arial; font-size: 18px; fill: rgb(0, 0, 0); opacity: 1; font-weight: normal; white-space: pre;">Lead [ g,mol,fract,h,deg ]</text></g><g class="g-ytitle"><text class="ytitle" transform="rotate(-90,31.148046875,360)" x="31.148046875" y="360" text-anchor="middle" style="font-family: sans-serif, 'Open Sans', verdana, arial; font-size: 18px; fill: rgb(0, 0, 0); opacity: 1; font-weight: normal; white-space: pre;">Stacked Mass [ g ]</text></g></g></svg>