<svg class="main-svg" xmlns="http://www.w3.org/2000/svg" xmlns:xlink="http://www.w3.org/1999/xlink" width="1950" height="1400" style="" viewBox="0 0 975 700"><rect x="0" y="0" width="975" height="700" style="fill: rgb(255, 255, 255); fill-opacity: 0;"/><defs id="defs-ff3ac6"><g class="clips"><clipPath id="clipff3ac6xyplot" class="plotclip"><rect width="803" height="520"/></clipPath><clipPath class="axesclip" id="clipff3ac6x"><rect x="80" y="0" width="803" height="700"/></clipPath><clipPath class="axesclip" id="clipff3ac6y"><rect x="0" y="100" width="975" height="520"/></clipPath><clipPath class="axesclip" id="clipff3ac6xy"><rect x="80" y="100" width="803" height="520"/></clipPath></g><g class="gradients"/><g class="patterns"/></defs><g class="bglayer"><rect class="bg" x="80" y="100" width="803" height="520" style="fill: rgb(255, 255, 255); fill-opacity: 0; stroke-width: 0;"/></g><g class="layer-below"><g class="imagelayer"/><g class="shapelayer"/></g><g class="cartesianlayer"><g class="subplot xy"><g class="layer-subplot"><g class="shapelayer"/><g class="imagelayer"/></g><g class="minor-gridlayer"><g class="x"/><g class="y"/></g><g class="gridlayer"><g class="x"><path class="xgrid crisp" transform="translate(128.35,0)" d="M0,100v520" style="stroke: rgb(0, 0, 0); stroke-opacity: 0.1; stroke-width: 1px;"/><path class="xgrid crisp" transform="translate(192.25,0)" d="M0,100v520" style="stroke: rgb(0, 0, 0); stroke-opacity: 0.1; stroke-width: 1px;"/><path class="xgrid crisp" transform="translate(240.6,0)" d="M0,100v520" style="stroke: rgb(0, 0, 0); stroke-opacity: 0.1; stroke-width: 1px;"/><path class="xgrid crisp" transform="translate(288.95,0)" d="M0,100v520" style="stroke: rgb(0, 0, 0); stroke-opacity: 0.1; stroke-width: 1px;"/><path class="xgrid crisp" transform="translate(352.85,0)" d="M0,100v520" style="stroke: rgb(0, 0, 0); stroke-opacity: 0.1; stroke-width: 1px;"/><path class="xgrid crisp" transform="translate(401.2,0)" d="M0,100v520" style="stroke: rgb(0, 0, 0); stroke-opacity: 0.1; stroke-width: 1px;"/><path class="xgrid crisp" transform="translate(449.55,0)" d="M0,100v520" style="stroke: rgb(0, 0, 0); stroke-opacity: 0.1; stroke-width: 1px;"/><path class="xgrid crisp" transform="translate(513.45,0)" d="M0,100v520" style="stroke: rgb(0, 0, 0); stroke-opacity: 0.1; stroke-width: 1px;"/><path class="xgrid crisp" transform="translate(561.8,0)" d="M0,100v520" style="stroke: rgb(0, 0, 0); stroke-opacity: 0.1; stroke-width: 1px;"/><path class="xgrid crisp" transform="translate(610.15,0)" d="M0,100v520" style="stroke: rgb(0, 0, 0); stroke-opacity: 0.1; stroke-width: 1px;"/><path class="xgrid crisp" transform="translate(674.05,0)" d="M0,100v520" style="stroke: rgb(0, 0, 0); stroke-opacity: 0.1; stroke-width: 1px;"/><path class="xgrid crisp" transform="translate(722.4,0)" d="M0,100v520" style="stroke: rgb(0, 0, 0); stroke-opacity: 0.1; stroke-width: 1px;"/><path class="xgrid crisp" transform="translate(770.75,0)" d="M0,100v520" style="stroke: rgb(0, 0, 0); stroke-opacity: 0.1; stroke-width: 1px;"/><path class="xgrid crisp" transform="translate(834.65,0)" d="M0,100v520" style="stroke: rgb(0, 0, 0); stroke-opacity: 0.1; stroke-width: 1px;"/></g><g class="y"><path class="ygrid crisp" transform="translate(0,552.25)" d="M80,0h803" style="stroke: rgb(0, 0, 0); stroke-opacity: 0.1; stroke-width: 1px;"/><path class="ygrid crisp" transform="translate(0,481.35)" d="M80,0h803" style="stroke: rgb(0, 0, 0); stroke-opacity: 0.1; stroke-width: 1px;"/><path class="ygrid crisp" transform="translate(0,410.45)" d="M80,0h803" style="stroke: rgb(0, 0, 0); stroke-opacity: 0.1; stroke-width: 1px;"/><path class="ygrid crisp" transform="translate(0,339.55)" d="M80,0h803" style="stroke: rgb(0, 0, 0); stroke-opacity: 0.1; stroke-width: 1px;"/><path class="ygrid crisp" transform="translate(0,268.65)" d="M80,0h803" style="stroke: rgb(0, 0, 0); stroke-opacity: 0.1; stroke-width: 1px;"/><path class="ygrid crisp" transform="translate(0,197.76)" d="M80,0h803" style="stroke: rgb(0, 0, 0); stroke-opacity: 0.1; stroke-width: 1px;"/><path class="ygrid crisp" transform="translate(0,126.86)" d="M80,0h803" style="stroke: rgb(0, 0, 0); stroke-opacity: 0.1; stroke-width: 1px;"/></g></g><g class="zerolinelayer"/><path class="xlines-below"/><path class="ylines-below"/><g class="overlines-below"/><g class="xaxislayer-below"/><g class="yaxislayer-below"/><g class="overaxes-below"/><g class="plot" transform="translate(80,100)" clip-path="url(#clipff3ac6xyplot)"><g class="scatterlayer mlayer"><g class="trace scatter trace0191d5" style="stroke-miterlimit: 2; opacity: 1;"><g class="fills"/><g class="errorbars"/><g class="lines"><path class="js-line" d="M305.14,449.23Q311.48,388.75 313.17,374.55C314.71,361.66 317.88,318.74 321.2,313.13C322.53,310.88 327.53,307.84 329.23,307.24C330.76,306.7 335.65,306.92 337.26,306.84C338.87,306.76 343.68,306.52 345.29,306.44C346.9,306.36 351.71,306.11 353.32,306.03C354.93,305.95 359.74,305.69 361.35,305.61C362.96,305.53 367.77,305.28 369.38,305.2C370.99,305.12 375.8,304.86 377.41,304.77C379.02,304.68 383.83,304.43 385.44,304.34C387.05,304.25 391.86,304 393.47,303.91C395.08,303.82 399.89,303.57 401.5,303.48C403.11,303.39 407.92,303.13 409.53,303.04C411.14,302.95 415.95,302.68 417.56,302.59C419.17,302.5 423.98,302.24 425.59,302.15C427.2,302.06 432.01,301.8 433.62,301.71C435.23,301.62 440.04,301.36 441.65,301.27C443.26,301.18 448.07,300.92 449.68,300.83C451.29,300.74 456.35,301.41 457.71,300.41C460.03,298.7 464.24,283.34 465.74,278.55C467.5,272.93 471.1,249.72 473.77,247.54C475.11,246.45 480.22,247.46 481.8,247.12C483.43,246.77 488.42,245.26 489.83,244.01C491.82,242.24 496.26,231.92 497.86,228.89C499.47,225.86 504.29,216.75 505.89,213.71C507.5,210.66 511.92,200.2 513.92,198.46C515.33,197.24 520.32,195.91 521.95,195.58C523.53,195.26 528.37,195.24 529.98,195.16C531.59,195.08 536.4,194.84 538.01,194.76C539.62,194.68 544.43,194.45 546.04,194.38C547.65,194.31 552.46,194.09 554.07,194.02C555.68,193.95 560.49,193.75 562.1,193.68C563.71,193.61 568.52,193.42 570.13,193.36C571.74,193.3 576.55,193.13 578.16,193.07C579.77,193.01 584.58,192.84 586.19,192.79C587.8,192.74 592.61,192.58 594.22,192.53C595.83,192.48 600.64,192.34 602.25,192.29C603.86,192.24 608.67,192.11 610.28,192.07C611.89,192.03 616.7,191.91 618.31,191.87C619.92,191.83 624.73,191.73 626.34,191.69C627.95,191.66 632.76,191.55 634.37,191.52C635.98,191.49 640.79,191.39 642.4,191.36C644.01,191.33 648.82,191.25 650.43,191.22C652.04,191.19 656.85,191.11 658.46,191.09C660.07,191.07 664.88,191 666.49,190.98C668.1,190.96 672.91,190.89 674.52,190.87C676.13,190.85 680.94,190.8 682.55,190.78C684.16,190.76 688.97,190.71 690.58,190.69C692.19,190.67 697,190.63 698.61,190.61C700.22,190.6 705.03,190.55 706.64,190.54C708.25,190.53 713.06,190.49 714.67,190.48C716.28,190.47 721.09,190.43 722.7,190.42C724.31,190.41 729.12,190.38 730.73,190.37C732.34,190.36 737.15,190.34 738.76,190.33C740.37,190.32 745.18,190.3 746.79,190.29C748.4,190.28 753.21,190.27 754.82,190.26C756.43,190.25 761.24,190.24 762.85,190.23C764.46,190.22 769.27,190.21 770.88,190.2C772.49,190.2 777.3,190.18 778.91,190.18C780.52,190.18 785.33,190.16 786.94,190.16C788.55,190.16 793.36,190.15 794.97,190.15Q796.58,190.15 803,190.13" style="vector-effect: none; fill: none; stroke: rgb(67, 153, 251); stroke-opacity: 1; stroke-width: 4px; opacity: 1;"/></g><g class="points"/><g class="text"/></g><g class="trace scatter traced43216" style="stroke-miterlimit: 2; opacity: 1;"><g class="fills"/><g class="errorbars"/><g class="lines"><path class="js-line" d="M0,319.76Q6.42,319.76 8.03,319.76C9.64,319.76 14.45,319.75 16.06,319.75C17.67,319.75 22.48,319.75 24.09,319.75C25.7,319.75 30.51,319.74 32.12,319.74C33.73,319.74 38.54,319.74 40.15,319.74C41.76,319.74 46.57,319.73 48.18,319.73C49.79,319.73 54.6,319.73 56.21,319.73C57.82,319.73 62.63,319.72 64.24,319.72C65.85,319.72 70.66,319.71 72.27,319.71C73.88,319.71 78.69,319.7 80.3,319.7C81.91,319.7 86.72,319.69 88.33,319.69C89.94,319.69 94.75,319.68 96.36,319.68C97.97,319.68 102.78,319.66 104.39,319.66C106,319.66 110.81,319.64 112.42,319.64C114.03,319.64 118.84,319.62 120.45,319.62C122.06,319.62 126.87,319.6 128.48,319.6C130.09,319.6 134.9,319.58 136.51,319.58C138.12,319.57 142.93,319.56 144.54,319.55C146.15,319.54 150.96,319.52 152.57,319.51C154.18,319.5 158.99,319.48 160.6,319.47C162.21,319.46 167.02,319.44 168.63,319.43C170.24,319.42 175.05,319.39 176.66,319.38C178.27,319.37 183.08,319.33 184.69,319.32C186.3,319.31 191.11,319.27 192.72,319.26C194.33,319.25 199.14,319.2 200.75,319.18C202.36,319.16 207.17,319.12 208.78,319.1C210.39,319.08 215.2,319.02 216.81,319C218.42,318.98 223.23,318.91 224.84,318.89C226.45,318.87 231.26,318.79 232.87,318.77C234.48,318.74 239.29,318.67 240.9,318.64C242.51,318.61 247.32,318.53 248.93,318.5C250.54,318.47 255.35,318.38 256.96,318.35C258.57,318.32 263.38,318.21 264.99,318.18C266.6,318.14 271.41,318.04 273.02,318C274.63,317.96 279.44,317.85 281.05,317.81C282.66,317.77 287.47,317.64 289.08,317.6C290.69,317.56 295.64,318.07 297.11,317.37C298.93,316.5 303.33,308.97 305.14,307.99C306.61,307.2 311.56,307.15 313.17,306.98C314.77,306.81 319.59,306.4 321.2,306.28C322.81,306.16 327.62,305.86 329.23,305.76C330.84,305.66 335.65,305.36 337.26,305.26C338.87,305.16 343.68,304.85 345.29,304.75C346.9,304.65 351.71,304.33 353.32,304.22C354.93,304.11 359.74,303.8 361.35,303.69C362.96,303.58 367.77,303.25 369.38,303.14C370.99,303.03 375.8,302.69 377.41,302.58C379.02,302.47 383.83,302.12 385.44,302.01C387.05,301.9 391.86,301.56 393.47,301.44C395.08,301.32 399.89,300.97 401.5,300.85C403.11,300.73 407.92,300.37 409.53,300.25C411.14,300.13 415.95,299.77 417.56,299.65C419.17,299.53 423.98,299.15 425.59,299.03C427.2,298.91 432.01,298.53 433.62,298.41C435.23,298.29 440.04,297.92 441.65,297.8C443.26,297.68 448.07,297.31 449.68,297.19C451.29,297.07 456.38,295.56 457.71,296.58C460.8,298.95 464.25,329.85 465.74,339.14C467.51,350.18 470.09,396.86 473.77,399.85C475.1,400.93 480.19,399.27 481.8,399.25C483.41,399.23 488.28,399.18 489.83,399.64C491.5,400.13 496.25,403.36 497.86,404.29C499.46,405.21 504.28,407.97 505.89,408.89C507.5,409.81 512.25,413.01 513.92,413.47C515.47,413.9 520.35,413.68 521.95,413.63C523.56,413.58 528.37,413.06 529.98,412.92C531.59,412.78 536.4,412.38 538.01,412.25C539.62,412.12 544.43,411.73 546.04,411.6C547.65,411.47 552.46,411.11 554.07,410.99C555.68,410.87 560.49,410.52 562.1,410.41C563.71,410.3 568.52,409.97 570.13,409.86C571.74,409.75 576.55,409.44 578.16,409.34C579.77,409.24 584.58,408.95 586.19,408.86C587.8,408.77 592.61,408.5 594.22,408.41C595.83,408.32 600.64,408.08 602.25,408C603.86,407.92 608.67,407.68 610.28,407.61C611.89,407.54 616.7,407.33 618.31,407.26C619.92,407.19 624.73,406.99 626.34,406.93C627.95,406.87 632.76,406.7 634.37,406.64C635.98,406.58 640.79,406.41 642.4,406.36C644.01,406.31 648.82,406.16 650.43,406.11C652.04,406.06 656.85,405.93 658.46,405.89C660.07,405.85 664.88,405.72 666.49,405.68C668.1,405.64 672.91,405.53 674.52,405.49C676.13,405.45 680.94,405.35 682.55,405.32C684.16,405.29 688.97,405.2 690.58,405.17C692.19,405.14 697,405.06 698.61,405.03C700.22,405 705.03,404.92 706.64,404.9C708.25,404.88 713.06,404.81 714.67,404.79C716.28,404.77 721.09,404.71 722.7,404.69C724.31,404.67 729.12,404.63 730.73,404.61C732.34,404.59 737.15,404.55 738.76,404.53C740.37,404.52 745.18,404.47 746.79,404.46C748.4,404.45 753.21,404.41 754.82,404.4C756.43,404.39 761.24,404.36 762.85,404.35C764.46,404.34 769.27,404.32 770.88,404.31C772.49,404.3 777.3,404.28 778.91,404.27C780.52,404.26 785.33,404.25 786.94,404.24C788.55,404.23 793.36,404.22 794.97,404.21Q796.58,404.2 803,404.18" style="vector-effect: none; fill: none; stroke: rgb(38, 98, 95); stroke-opacity: 1; stroke-width: 4px; opacity: 1;"/></g><g class="points"/><g class="text"/></g><g class="trace scatter trace932397" style="stroke-miterlimit: 2; opacity: 1;"><g class="fills"/><g class="errorbars"/><g class="lines"><path class="js-line" d="M0,72.63Q6.42,72.6 8.03,72.6C9.64,72.6 14.45,72.61 16.06,72.61C17.67,72.61 22.48,72.61 24.09,72.61C25.7,72.61 30.51,72.62 32.12,72.62C33.73,72.62 38.54,72.62 40.15,72.62C41.76,72.62 46.57,72.63 48.18,72.63C49.79,72.63 54.6,72.64 56.21,72.64C57.82,72.64 62.63,72.65 64.24,72.65C65.85,72.65 70.66,72.66 72.27,72.66C73.88,72.66 78.69,72.68 80.3,72.68C81.91,72.68 86.72,72.69 88.33,72.69C89.94,72.69 94.75,72.71 96.36,72.71C97.97,72.71 102.78,72.73 104.39,72.73C106,72.73 110.81,72.75 112.42,72.75C114.03,72.75 118.84,72.77 120.45,72.77C122.06,72.78 126.87,72.79 128.48,72.8C130.09,72.81 134.9,72.83 136.51,72.84C138.12,72.85 142.93,72.86 144.54,72.87C146.15,72.88 150.96,72.9 152.57,72.91C154.18,72.92 158.99,72.95 160.6,72.96C162.21,72.97 167.02,73.01 168.63,73.02C170.24,73.03 175.05,73.07 176.66,73.08C178.27,73.09 183.08,73.14 184.69,73.15C186.3,73.17 191.11,73.21 192.72,73.23C194.33,73.25 199.14,73.29 200.75,73.31C202.36,73.33 207.17,73.39 208.78,73.41C210.39,73.43 215.2,73.51 216.81,73.53C218.42,73.55 223.23,73.63 224.84,73.65C226.45,73.68 231.26,73.75 232.87,73.78C234.48,73.81 239.29,73.9 240.9,73.93C242.51,73.96 247.32,74.05 248.93,74.08C250.54,74.11 255.35,74.22 256.96,74.25C258.57,74.29 263.38,74.39 264.99,74.43C266.6,74.47 271.41,74.58 273.02,74.62C274.63,74.66 279.44,74.78 281.05,74.82C282.66,74.86 287.47,75 289.08,75.04C290.69,75.09 295.77,74.19 297.11,75.27C299.85,77.49 302.44,105.42 305.14,108.19C306.48,109.56 311.55,110.05 313.17,110.37C314.76,110.68 319.59,111.19 321.2,111.35C322.8,111.5 327.62,111.81 329.23,111.92C330.84,112.03 335.65,112.34 337.26,112.45C338.87,112.56 343.68,112.88 345.29,112.99C346.9,113.1 351.71,113.42 353.32,113.53C354.93,113.64 359.74,113.97 361.35,114.08C362.96,114.19 367.77,114.53 369.38,114.64C370.99,114.75 375.8,115.09 377.41,115.2C379.02,115.31 383.83,115.65 385.44,115.76C387.05,115.87 391.86,116.22 393.47,116.33C395.08,116.44 399.89,116.79 401.5,116.9C403.11,117.02 407.92,117.36 409.53,117.48C411.14,117.6 415.95,117.94 417.56,118.06C419.17,118.18 423.98,118.52 425.59,118.64C427.2,118.76 432.01,119.1 433.62,119.22C435.23,119.33 440.04,119.68 441.65,119.79C443.26,119.9 448.07,120.24 449.68,120.35C451.29,120.46 456.1,120.8 457.71,120.9C459.32,121 464.13,121.29 465.74,121.39C467.35,121.49 472.16,121.8 473.77,121.91C475.38,122.02 480.2,122.24 481.8,122.45C483.41,122.67 488.31,123.35 489.83,124.06C491.54,124.86 496.25,129.19 497.86,130.47C499.46,131.74 504.28,135.54 505.89,136.8C507.49,138.06 512.22,142.28 513.92,143.04C515.45,143.72 520.34,144.31 521.95,144.51C523.55,144.71 528.37,144.93 529.98,145.03C531.59,145.13 536.4,145.43 538.01,145.53C539.62,145.63 544.43,145.91 546.04,146C547.65,146.09 552.46,146.36 554.07,146.45C555.68,146.54 560.49,146.8 562.1,146.88C563.71,146.96 568.52,147.19 570.13,147.27C571.74,147.35 576.55,147.57 578.16,147.64C579.77,147.71 584.58,147.92 586.19,147.99C587.8,148.06 592.61,148.25 594.22,148.31C595.83,148.37 600.64,148.54 602.25,148.6C603.86,148.66 608.67,148.82 610.28,148.87C611.89,148.92 616.7,149.07 618.31,149.12C619.92,149.17 624.73,149.31 626.34,149.35C627.95,149.39 632.76,149.52 634.37,149.56C635.98,149.6 640.79,149.71 642.4,149.75C644.01,149.79 648.82,149.9 650.43,149.93C652.04,149.96 656.85,150.05 658.46,150.08C660.07,150.11 664.88,150.2 666.49,150.23C668.1,150.26 672.91,150.34 674.52,150.36C676.13,150.38 680.94,150.45 682.55,150.47C684.16,150.49 688.97,150.56 690.58,150.58C692.19,150.6 697,150.66 698.61,150.68C700.22,150.7 705.03,150.74 706.64,150.76C708.25,150.78 713.06,150.82 714.67,150.84C716.28,150.85 721.09,150.9 722.7,150.91C724.31,150.92 729.12,150.96 730.73,150.97C732.34,150.98 737.15,151.02 738.76,151.03C740.37,151.04 745.18,151.06 746.79,151.07C748.4,151.08 753.21,151.1 754.82,151.11C756.43,151.12 761.24,151.13 762.85,151.14C764.46,151.15 769.27,151.16 770.88,151.17C772.49,151.18 777.3,151.19 778.91,151.2C780.52,151.21 785.33,151.22 786.94,151.23C788.55,151.23 793.36,151.25 794.97,151.25Q796.58,151.25 803,151.27" style="vector-effect: none; fill: none; stroke: rgb(90, 111, 231); stroke-opacity: 1; stroke-width: 4px; opacity: 1;"/></g><g class="points"/><g class="text"/></g><g class="trace scatter tracef8e869" style="stroke-miterlimit: 2; opacity: 1;"><g class="fills"/><g class="errorbars"/><g class="lines"><path class="js-line" d="M305.14,494" style="vector-effect: none; fill: none; stroke: rgb(240, 85, 85); stroke-opacity: 1; stroke-width: 4px; opacity: 1;"/></g><g class="points"/><g class="text"/></g><g class="trace scatter traceb6cd91" style="stroke-miterlimit: 2; opacity: 1;"><g class="fills"/><g class="errorbars"/><g class="lines"><path class="js-line" d="M0,49.64Q6.42,49.6 8.03,49.59C9.64,49.58 14.45,49.58 16.06,49.58C17.67,49.58 22.48,49.56 24.09,49.56C25.7,49.56 30.51,49.54 32.12,49.54C33.73,49.54 38.54,49.52 40.15,49.52C41.76,49.52 46.57,49.5 48.18,49.5C49.79,49.49 54.6,49.48 56.21,49.47C57.82,49.46 62.63,49.45 64.24,49.44C65.85,49.43 70.66,49.41 72.27,49.4C73.88,49.39 78.69,49.37 80.3,49.36C81.91,49.35 86.72,49.32 88.33,49.31C89.94,49.3 94.75,49.27 96.36,49.26C97.97,49.25 102.78,49.21 104.39,49.2C106,49.19 110.81,49.15 112.42,49.14C114.03,49.13 118.84,49.08 120.45,49.06C122.06,49.04 126.87,49 128.48,48.98C130.09,48.96 134.9,48.9 136.51,48.88C138.12,48.86 142.93,48.8 144.54,48.78C146.15,48.76 150.96,48.69 152.57,48.66C154.18,48.63 158.99,48.55 160.6,48.52C162.21,48.49 167.02,48.4 168.63,48.37C170.24,48.34 175.05,48.24 176.66,48.2C178.27,48.16 183.08,48.04 184.69,48C186.3,47.96 191.11,47.84 192.72,47.79C194.33,47.74 199.14,47.59 200.75,47.54C202.36,47.49 207.17,47.33 208.78,47.27C210.39,47.21 215.2,47.03 216.81,46.97C218.42,46.91 223.23,46.71 224.84,46.64C226.45,46.57 231.26,46.35 232.87,46.27C234.48,46.19 239.29,45.96 240.9,45.88C242.51,45.8 247.32,45.54 248.93,45.45C250.54,45.36 255.35,45.09 256.96,44.99C258.57,44.89 263.38,44.59 264.99,44.49C266.6,44.39 271.41,44.06 273.02,43.95C274.63,43.84 279.44,43.49 281.05,43.37C282.66,43.25 287.47,42.89 289.08,42.76C290.69,42.63 295.5,42.12 297.11,42.1C298.72,42.08 303.53,42.57 305.14,42.57C306.75,42.57 311.56,42.23 313.17,42.13C314.78,42.02 319.59,41.63 321.2,41.52C322.81,41.41 327.62,41.1 329.23,41C330.84,40.9 335.65,40.6 337.26,40.5C338.87,40.4 343.68,40.08 345.29,39.98C346.9,39.87 351.71,39.56 353.32,39.45C354.93,39.34 359.74,39.02 361.35,38.91C362.96,38.8 367.77,38.46 369.38,38.35C370.99,38.24 375.8,37.89 377.41,37.78C379.02,37.66 383.83,37.32 385.44,37.2C387.05,37.08 391.86,36.74 393.47,36.62C395.08,36.5 399.89,36.14 401.5,36.02C403.11,35.9 407.92,35.53 409.53,35.41C411.14,35.29 415.95,34.92 417.56,34.8C419.17,34.68 423.98,34.3 425.59,34.18C427.2,34.06 432.01,33.68 433.62,33.56C435.23,33.44 440.04,33.07 441.65,32.95C443.26,32.83 448.07,32.46 449.68,32.34C451.29,32.22 456.1,31.84 457.71,31.73C459.32,31.62 464.13,31.37 465.74,31.27C467.35,31.17 472.16,30.84 473.77,30.73C475.38,30.62 480.19,30.23 481.8,30.14C483.41,30.05 488.23,29.76 489.83,29.81C491.44,29.86 496.25,30.49 497.86,30.67C499.47,30.85 504.28,31.44 505.89,31.64C507.5,31.85 512.31,32.64 513.92,32.72C515.52,32.8 520.34,32.54 521.95,32.47C523.56,32.39 528.37,32.07 529.98,31.97C531.59,31.87 536.4,31.58 538.01,31.49C539.62,31.4 544.43,31.12 546.04,31.03C547.65,30.94 552.46,30.68 554.07,30.6C555.68,30.52 560.49,30.28 562.1,30.2C563.71,30.12 568.52,29.89 570.13,29.82C571.74,29.75 576.55,29.54 578.16,29.47C579.77,29.4 584.58,29.2 586.19,29.14C587.8,29.08 592.61,28.89 594.22,28.83C595.83,28.77 600.64,28.6 602.25,28.55C603.86,28.5 608.67,28.34 610.28,28.29C611.89,28.24 616.7,28.1 618.31,28.05C619.92,28 624.73,27.87 626.34,27.83C627.95,27.79 632.76,27.67 634.37,27.63C635.98,27.59 640.79,27.48 642.4,27.45C644.01,27.42 648.82,27.32 650.43,27.29C652.04,27.26 656.85,27.17 658.46,27.14C660.07,27.11 664.88,27.03 666.49,27C668.1,26.97 672.91,26.9 674.52,26.88C676.13,26.86 680.94,26.79 682.55,26.77C684.16,26.75 688.97,26.68 690.58,26.66C692.19,26.64 697,26.59 698.61,26.57C700.22,26.55 705.03,26.51 706.64,26.49C708.25,26.47 713.06,26.42 714.67,26.41C716.28,26.4 721.09,26.36 722.7,26.35C724.31,26.34 729.12,26.3 730.73,26.29C732.34,26.28 737.15,26.24 738.76,26.23C740.37,26.22 745.18,26.2 746.79,26.19C748.4,26.18 753.21,26.16 754.82,26.15C756.43,26.14 761.24,26.13 762.85,26.12C764.46,26.11 769.27,26.1 770.88,26.09C772.49,26.08 777.3,26.07 778.91,26.06C780.52,26.06 785.33,26.04 786.94,26.04C788.55,26.04 793.36,26.02 794.97,26.02Q796.58,26.02 803,26" style="vector-effect: none; fill: none; stroke: rgb(209, 91, 252); stroke-opacity: 1; stroke-width: 4px; opacity: 1;"/></g><g class="points"/><g class="text"/></g><g class="trace scatter trace4356eb" style="stroke-miterlimit: 2; opacity: 1;"><g class="fills"/><g class="errorbars"/><g class="lines"><path class="js-line" d="M8.03,451.81Q14.45,451.82 16.06,451.82C17.67,451.82 22.48,451.82 24.09,451.82C25.7,451.82 30.51,451.83 32.12,451.83C33.73,451.83 38.54,451.83 40.15,451.83C41.76,451.83 46.57,451.84 48.18,451.84C49.79,451.84 54.6,451.85 56.21,451.85C57.82,451.85 62.63,451.86 64.24,451.86C65.85,451.86 70.66,451.87 72.27,451.87C73.88,451.87 78.69,451.88 80.3,451.88C81.91,451.88 86.72,451.89 88.33,451.89C89.94,451.89 94.75,451.9 96.36,451.9C97.97,451.9 102.78,451.92 104.39,451.92C106,451.92 110.81,451.94 112.42,451.94C114.03,451.94 118.84,451.96 120.45,451.96C122.06,451.97 126.87,451.98 128.48,451.99C130.09,452 134.9,452.01 136.51,452.02C138.12,452.03 142.93,452.04 144.54,452.05C146.15,452.06 150.96,452.08 152.57,452.09C154.18,452.1 158.99,452.12 160.6,452.13C162.21,452.14 167.02,452.17 168.63,452.18C170.24,452.19 175.05,452.22 176.66,452.23C178.27,452.24 183.08,452.28 184.69,452.29C186.3,452.3 191.11,452.35 192.72,452.36C194.33,452.38 199.14,452.42 200.75,452.44C202.36,452.46 207.17,452.51 208.78,452.53C210.39,452.55 215.2,452.61 216.81,452.63C218.42,452.65 223.23,452.71 224.84,452.73C226.45,452.75 231.26,452.83 232.87,452.85C234.48,452.88 239.29,452.95 240.9,452.98C242.51,453.01 247.32,453.09 248.93,453.12C250.54,453.15 255.35,453.24 256.96,453.27C258.57,453.3 263.38,453.4 264.99,453.43C266.6,453.46 271.41,453.56 273.02,453.6C274.63,453.64 279.44,453.75 281.05,453.79C282.66,453.83 287.47,453.94 289.08,453.98C290.69,454.02 295.72,453.29 297.11,454.19Q299.22,455.56 305.14,470.93" style="vector-effect: none; fill: none; stroke: rgb(214, 77, 49); stroke-opacity: 1; stroke-width: 4px; opacity: 1;"/></g><g class="points"/><g class="text"/></g><g class="trace scatter trace95dff6" style="stroke-miterlimit: 2; opacity: 1;"><g class="fills"/><g class="errorbars"/><g class="lines"><path class="js-line" d="M0,114.24Q6.42,114.24 8.03,114.24C9.64,114.24 14.45,114.23 16.06,114.23C17.67,114.23 22.48,114.21 24.09,114.2C25.7,114.19 30.51,114.18 32.12,114.17C33.73,114.16 38.54,114.14 40.15,114.13C41.76,114.12 46.57,114.1 48.18,114.09C49.79,114.08 54.6,114.04 56.21,114.03C57.82,114.02 62.63,113.97 64.24,113.96C65.85,113.94 70.66,113.9 72.27,113.88C73.88,113.86 78.69,113.81 80.3,113.79C81.91,113.77 86.72,113.7 88.33,113.68C89.94,113.66 94.75,113.58 96.36,113.55C97.97,113.52 102.78,113.43 104.39,113.4C106,113.37 110.81,113.27 112.42,113.23C114.03,113.19 118.84,113.07 120.45,113.03C122.06,112.99 126.87,112.85 128.48,112.8C130.09,112.75 134.9,112.59 136.51,112.53C138.12,112.47 142.93,112.3 144.54,112.23C146.15,112.16 150.96,111.95 152.57,111.87C154.18,111.79 158.99,111.56 160.6,111.47C162.21,111.38 167.02,111.11 168.63,111.01C170.24,110.91 175.05,110.6 176.66,110.49C178.27,110.38 183.08,110.03 184.69,109.9C186.3,109.77 191.11,109.37 192.72,109.23C194.33,109.09 199.14,108.64 200.75,108.48C202.36,108.32 207.17,107.82 208.78,107.64C210.39,107.46 215.2,106.89 216.81,106.7C218.42,106.51 223.23,105.9 224.84,105.7C226.45,105.5 231.26,104.87 232.87,104.66C234.48,104.45 239.29,103.79 240.9,103.57C242.51,103.35 247.32,102.67 248.93,102.44C250.54,102.21 255.35,101.52 256.96,101.29C258.57,101.06 263.38,100.34 264.99,100.1C266.6,99.86 271.41,99.13 273.02,98.89C274.63,98.65 279.44,97.91 281.05,97.66C282.66,97.41 287.47,96.67 289.08,96.42C290.69,96.17 295.51,95.12 297.11,95.17C298.72,95.22 303.53,96.8 305.14,96.9C306.74,97 311.57,96.34 313.17,96.18C314.78,96.02 319.59,95.43 321.2,95.26C322.81,95.09 327.62,94.61 329.23,94.46C330.84,94.31 335.65,93.89 337.26,93.75C338.87,93.61 343.68,93.22 345.29,93.09C346.9,92.96 351.71,92.6 353.32,92.49C354.93,92.38 359.74,92.05 361.35,91.95C362.96,91.85 367.77,91.55 369.38,91.46C370.99,91.37 375.8,91.11 377.41,91.03C379.02,90.95 383.83,90.72 385.44,90.65C387.05,90.58 391.86,90.39 393.47,90.33C395.08,90.27 399.89,90.1 401.5,90.05C403.11,90 407.92,89.87 409.53,89.83C411.14,89.79 415.95,89.69 417.56,89.66C419.17,89.63 423.98,89.56 425.59,89.54C427.2,89.52 432.01,89.47 433.62,89.46C435.23,89.45 440.04,89.44 441.65,89.44C443.26,89.44 448.07,89.47 449.68,89.48C451.29,89.49 456.1,89.54 457.71,89.57C459.32,89.6 464.13,89.7 465.74,89.74C467.35,89.78 472.16,89.89 473.77,89.93C475.38,89.97 480.2,90.05 481.8,90.14C483.41,90.23 488.24,90.49 489.83,90.81C491.46,91.14 496.26,92.9 497.86,93.43C499.47,93.96 504.28,95.58 505.89,96.12C507.5,96.66 512.29,98.55 513.92,98.87C515.51,99.18 520.34,99.3 521.95,99.35C523.56,99.4 528.37,99.38 529.98,99.39C531.59,99.4 536.4,99.43 538.01,99.44C539.62,99.45 544.43,99.48 546.04,99.49C547.65,99.5 552.46,99.53 554.07,99.54C555.68,99.55 560.49,99.59 562.1,99.6C563.71,99.61 568.52,99.65 570.13,99.66C571.74,99.67 576.55,99.71 578.16,99.72C579.77,99.73 584.58,99.77 586.19,99.78C587.8,99.79 592.61,99.83 594.22,99.84C595.83,99.85 600.64,99.88 602.25,99.89C603.86,99.9 608.67,99.94 610.28,99.95C611.89,99.96 616.7,99.99 618.31,100C619.92,100.01 624.73,100.04 626.34,100.05C627.95,100.06 632.76,100.08 634.37,100.09C635.98,100.1 640.79,100.13 642.4,100.14C644.01,100.15 648.82,100.17 650.43,100.18C652.04,100.19 656.85,100.21 658.46,100.22C660.07,100.23 664.88,100.25 666.49,100.26C668.1,100.27 672.91,100.28 674.52,100.29C676.13,100.3 680.94,100.31 682.55,100.32C684.16,100.33 688.97,100.34 690.58,100.35C692.19,100.36 697,100.37 698.61,100.38C700.22,100.39 705.03,100.4 706.64,100.41C708.25,100.42 713.06,100.43 714.67,100.44C716.28,100.45 721.09,100.46 722.7,100.47C724.31,100.48 729.12,100.49 730.73,100.5C732.34,100.51 737.15,100.52 738.76,100.53C740.37,100.54 745.18,100.55 746.79,100.56C748.4,100.56 753.21,100.58 754.82,100.58C756.43,100.58 761.24,100.6 762.85,100.6C764.46,100.6 769.27,100.62 770.88,100.62C772.49,100.62 777.3,100.63 778.91,100.63C780.52,100.63 785.33,100.64 786.94,100.64C788.55,100.64 793.36,100.66 794.97,100.66Q796.58,100.66 803,100.67" style="vector-effect: none; fill: none; stroke: rgb(59, 124, 198); stroke-opacity: 1; stroke-width: 4px; opacity: 1;"/></g><g class="points"/><g class="text"/></g><g class="trace scatter traced110ad" style="stroke-miterlimit: 2; opacity: 1;"><g class="fills"/><g class="errorbars"/><g class="lines"><path class="js-line" d="M0,72.14Q6.42,72.11 8.03,72.11C9.64,72.11 14.45,72.11 16.06,72.11C17.67,72.11 22.48,72.09 24.09,72.09C25.7,72.09 30.51,72.08 32.12,72.08C33.73,72.08 38.54,72.07 40.15,72.07C41.76,72.07 46.57,72.05 48.18,72.05C49.79,72.05 54.6,72.04 56.21,72.04C57.82,72.04 62.63,72.02 64.24,72.01C65.85,72.01 70.66,71.99 72.27,71.99C73.88,71.98 78.69,71.97 80.3,71.96C81.91,71.95 86.72,71.94 88.33,71.93C89.94,71.92 94.75,71.91 96.36,71.9C97.97,71.89 102.78,71.87 104.39,71.86C106,71.85 110.81,71.82 112.42,71.81C114.03,71.8 118.84,71.77 120.45,71.76C122.06,71.75 126.87,71.71 128.48,71.7C130.09,71.69 134.9,71.64 136.51,71.63C138.12,71.61 142.93,71.57 144.54,71.55C146.15,71.53 150.96,71.48 152.57,71.46C154.18,71.44 158.99,71.38 160.6,71.36C162.21,71.34 167.02,71.27 168.63,71.25C170.24,71.23 175.05,71.15 176.66,71.12C178.27,71.09 183.08,71 184.69,70.97C186.3,70.94 191.11,70.84 192.72,70.8C194.33,70.76 199.14,70.65 200.75,70.61C202.36,70.57 207.17,70.44 208.78,70.4C210.39,70.35 215.2,70.21 216.81,70.16C218.42,70.11 223.23,69.95 224.84,69.89C226.45,69.83 231.26,69.66 232.87,69.6C234.48,69.54 239.29,69.35 240.9,69.28C242.51,69.21 247.32,69 248.93,68.93C250.54,68.86 255.35,68.63 256.96,68.55C258.57,68.47 263.38,68.23 264.99,68.15C266.6,68.07 271.41,67.8 273.02,67.71C274.63,67.62 279.44,67.33 281.05,67.23C282.66,67.13 287.47,66.83 289.08,66.73C290.69,66.63 295.76,65.04 297.11,66.19C301.64,70.07 303.2,141.63 305.14,156.9C306.56,168.09 311.51,195.82 313.17,205.13C314.73,213.84 318.24,243.59 321.2,247.19C322.53,248.81 327.59,250.2 329.23,250.43C330.81,250.65 335.65,249.75 337.26,249.58C338.87,249.41 343.68,248.88 345.29,248.71C346.9,248.53 351.71,248.01 353.32,247.83C354.93,247.65 359.74,247.12 361.35,246.94C362.96,246.76 367.77,246.21 369.38,246.03C370.99,245.85 375.8,245.29 377.41,245.11C379.02,244.92 383.83,244.37 385.44,244.18C387.05,243.99 391.86,243.42 393.47,243.23C395.08,243.04 399.89,242.46 401.5,242.27C403.11,242.08 407.92,241.49 409.53,241.3C411.14,241.1 415.95,240.52 417.56,240.32C419.17,240.12 423.98,239.53 425.59,239.33C427.2,239.13 432.01,238.54 433.62,238.34C435.23,238.14 440.04,237.56 441.65,237.36C443.26,237.17 448.07,236.58 449.68,236.39C451.29,236.2 456.27,234.8 457.71,235.43C459.59,236.25 464.26,243.92 465.74,246.51C467.53,249.64 471.6,263.6 473.77,264.84C475.15,265.63 480.2,264.11 481.8,263.9C483.41,263.69 488.23,263.07 489.83,262.74C491.45,262.41 496.25,261.01 497.86,260.59C499.47,260.17 504.28,258.93 505.89,258.52C507.5,258.11 512.31,256.84 513.92,256.53C515.52,256.22 520.34,255.62 521.95,255.41C523.55,255.2 528.37,254.65 529.98,254.47C531.59,254.29 536.4,253.75 538.01,253.57C539.62,253.4 544.43,252.89 546.04,252.72C547.65,252.55 552.46,252.07 554.07,251.91C555.68,251.75 560.49,251.29 562.1,251.14C563.71,250.99 568.52,250.56 570.13,250.42C571.74,250.28 576.55,249.87 578.16,249.74C579.77,249.61 584.58,249.24 586.19,249.12C587.8,249 592.61,248.64 594.22,248.53C595.83,248.42 600.64,248.09 602.25,247.99C603.86,247.89 608.67,247.59 610.28,247.49C611.89,247.39 616.7,247.12 618.31,247.03C619.92,246.94 624.73,246.69 626.34,246.61C627.95,246.53 632.76,246.3 634.37,246.23C635.98,246.16 640.79,245.94 642.4,245.87C644.01,245.8 648.82,245.61 650.43,245.55C652.04,245.49 656.85,245.32 658.46,245.26C660.07,245.21 664.88,245.05 666.49,245C668.1,244.95 672.91,244.8 674.52,244.75C676.13,244.7 680.94,244.57 682.55,244.53C684.16,244.49 688.97,244.38 690.58,244.34C692.19,244.3 697,244.19 698.61,244.16C700.22,244.13 705.03,244.03 706.64,244C708.25,243.97 713.06,243.88 714.67,243.85C716.28,243.82 721.09,243.75 722.7,243.73C724.31,243.71 729.12,243.63 730.73,243.61C732.34,243.59 737.15,243.53 738.76,243.51C740.37,243.49 745.18,243.45 746.79,243.43C748.4,243.41 753.21,243.36 754.82,243.35C756.43,243.34 761.24,243.3 762.85,243.29C764.46,243.28 769.27,243.24 770.88,243.23C772.49,243.22 777.3,243.19 778.91,243.18C780.52,243.17 785.33,243.15 786.94,243.14C788.55,243.13 793.36,243.11 794.97,243.1Q796.58,243.09 803,243.06" style="vector-effect: none; fill: none; stroke: rgb(203, 208, 47); stroke-opacity: 1; stroke-width: 4px; opacity: 1;"/></g><g class="points"/><g class="text"/></g><g class="trace scatter trace988f14" style="stroke-miterlimit: 2; opacity: 1;"><g class="fills"/><g class="errorbars"/><g class="lines"><path class="js-line" d="M8.03,274.29Q14.45,274.29 16.06,274.29C17.67,274.29 22.48,274.29 24.09,274.29C25.7,274.29 30.51,274.29 32.12,274.29C33.73,274.29 38.54,274.29 40.15,274.29C41.76,274.29 46.57,274.29 48.18,274.29C49.79,274.29 54.6,274.29 56.21,274.29C57.82,274.29 62.63,274.29 64.24,274.29C65.85,274.29 70.66,274.29 72.27,274.29C73.88,274.29 78.69,274.29 80.3,274.29C81.91,274.29 86.72,274.3 88.33,274.3C89.94,274.3 94.75,274.3 96.36,274.3C97.97,274.3 102.78,274.3 104.39,274.3C106,274.3 110.81,274.3 112.42,274.3C114.03,274.3 118.84,274.3 120.45,274.3C122.06,274.3 126.87,274.3 128.48,274.3C130.09,274.3 134.9,274.3 136.51,274.3C138.12,274.3 142.93,274.3 144.54,274.3C146.15,274.3 150.96,274.31 152.57,274.31C154.18,274.31 158.99,274.31 160.6,274.31C162.21,274.31 167.02,274.31 168.63,274.31C170.24,274.31 175.05,274.31 176.66,274.31C178.27,274.31 183.08,274.32 184.69,274.32C186.3,274.32 191.11,274.32 192.72,274.32C194.33,274.32 199.14,274.32 200.75,274.32C202.36,274.32 207.17,274.33 208.78,274.33C210.39,274.33 215.2,274.33 216.81,274.33C218.42,274.33 223.23,274.34 224.84,274.34C226.45,274.34 231.26,274.35 232.87,274.35C234.48,274.35 239.29,274.35 240.9,274.35C242.51,274.35 247.32,274.36 248.93,274.36C250.54,274.36 255.35,274.37 256.96,274.37C258.57,274.37 263.38,274.38 264.99,274.38C266.6,274.38 271.41,274.39 273.02,274.39C274.63,274.39 279.44,274.4 281.05,274.4C282.66,274.4 287.47,274.41 289.08,274.41C290.69,274.41 295.51,274.53 297.11,274.42C298.72,274.31 303.53,273.44 305.14,273.32C306.74,273.2 311.56,273.25 313.17,273.24C314.78,273.23 319.59,273.21 321.2,273.2C322.81,273.19 327.62,273.18 329.23,273.18C330.84,273.18 335.65,273.16 337.26,273.16C338.87,273.15 343.68,273.14 345.29,273.13C346.9,273.13 351.71,273.11 353.32,273.11C354.93,273.1 359.74,273.09 361.35,273.08C362.96,273.07 367.77,273.06 369.38,273.05C370.99,273.04 375.8,273.03 377.41,273.02C379.02,273.01 383.83,273 385.44,272.99C387.05,272.98 391.86,272.96 393.47,272.95C395.08,272.94 399.89,272.93 401.5,272.92C403.11,272.91 407.92,272.89 409.53,272.88C411.14,272.87 415.95,272.85 417.56,272.84C419.17,272.83 423.98,272.81 425.59,272.8C427.2,272.79 432.01,272.77 433.62,272.76C435.23,272.75 440.04,272.72 441.65,272.71C443.26,272.7 448.07,272.68 449.68,272.67C451.29,272.66 456.1,272.63 457.71,272.62C459.32,272.61 464.13,272.59 465.74,272.58C467.35,272.57 472.16,272.55 473.77,272.54C475.38,272.53 480.2,272.61 481.8,272.49C483.41,272.37 488.3,271.98 489.83,271.37C491.52,270.69 496.25,266.76 497.86,265.63C499.46,264.5 504.28,261.16 505.89,260.06C507.49,258.96 512.23,255.25 513.92,254.62C515.46,254.04 520.34,253.75 521.95,253.64C523.55,253.53 528.37,253.55 529.98,253.53C531.59,253.51 536.4,253.45 538.01,253.43C539.62,253.41 544.43,253.35 546.04,253.33C547.65,253.31 552.46,253.25 554.07,253.23C555.68,253.21 560.49,253.16 562.1,253.14C563.71,253.12 568.52,253.07 570.13,253.05C571.74,253.03 576.55,252.98 578.16,252.96C579.77,252.94 584.58,252.9 586.19,252.88C587.8,252.86 592.61,252.82 594.22,252.8C595.83,252.79 600.64,252.74 602.25,252.73C603.86,252.72 608.67,252.68 610.28,252.67C611.89,252.66 616.7,252.61 618.31,252.6C619.92,252.59 624.73,252.56 626.34,252.55C627.95,252.54 632.76,252.5 634.37,252.49C635.98,252.48 640.79,252.46 642.4,252.45C644.01,252.44 648.82,252.41 650.43,252.4C652.04,252.39 656.85,252.37 658.46,252.36C660.07,252.35 664.88,252.33 666.49,252.32C668.1,252.31 672.91,252.3 674.52,252.29C676.13,252.28 680.94,252.27 682.55,252.26C684.16,252.25 688.97,252.24 690.58,252.23C692.19,252.22 697,252.21 698.61,252.2C700.22,252.2 705.03,252.18 706.64,252.18C708.25,252.18 713.06,252.16 714.67,252.16C716.28,252.16 721.09,252.14 722.7,252.14C724.31,252.14 729.12,252.12 730.73,252.12C732.34,252.12 737.15,252.11 738.76,252.11C740.37,252.11 745.18,252.1 746.79,252.1C748.4,252.1 753.21,252.08 754.82,252.08C756.43,252.08 761.24,252.08 762.85,252.08C764.46,252.08 769.27,252.07 770.88,252.07C772.49,252.07 777.3,252.06 778.91,252.06C780.52,252.06 785.33,252.05 786.94,252.05C788.55,252.05 793.36,252.05 794.97,252.05Q796.58,252.05 803,252.04" style="vector-effect: none; fill: none; stroke: rgb(59, 170, 38); stroke-opacity: 1; stroke-width: 4px; opacity: 1;"/></g><g class="points"/><g class="text"/></g></g></g><g class="overplot"/><path class="xlines-above crisp" d="M79,620.5H884M79,99.5H884" style="fill: none; stroke-width: 1px; stroke: rgb(0, 0, 0); stroke-opacity: 1;"/><path class="ylines-above crisp" d="M79.5,100V620M883.5,100V620" style="fill: none; stroke-width: 1px; stroke: rgb(0, 0, 0); stroke-opacity: 1;"/><g class="overlines-above"/><g class="xaxislayer-above"><path class="xtick ticks crisp" d="M0,621v5M0,99v-5" transform="translate(80,0)" style="stroke: rgb(0, 0, 0); stroke-opacity: 1; stroke-width: 1px;"/><path class="xtick ticks crisp" d="M0,621v5M0,99v-5" transform="translate(128.35,0)" style="stroke: rgb(0, 0, 0); stroke-opacity: 1; stroke-width: 1px;"/><path class="xtick ticks crisp" d="M0,621v5M0,99v-5" transform="translate(192.25,0)" style="stroke: rgb(0, 0, 0); stroke-opacity: 1; stroke-width: 1px;"/><path class="xtick ticks crisp" d="M0,621v5M0,99v-5" transform="translate(240.6,0)" style="stroke: rgb(0, 0, 0); stroke-opacity: 1; stroke-width: 1px;"/><path class="xtick ticks crisp" d="M0,621v5M0,99v-5" transform="translate(288.95,0)" style="stroke: rgb(0, 0, 0); stroke-opacity: 1; stroke-width: 1px;"/><path class="xtick ticks crisp" d="M0,621v5M0,99v-5" transform="translate(352.85,0)" style="stroke: rgb(0, 0, 0); stroke-opacity: 1; stroke-width: 1px;"/><path class="xtick ticks crisp" d="M0,621v5M0,99v-5" transform="translate(401.2,0)" style="stroke: rgb(0, 0, 0); stroke-opacity: 1; stroke-width: 1px;"/><path class="xtick ticks crisp" d="M0,621v5M0,99v-5" transform="translate(449.55,0)" style="stroke: rgb(0, 0, 0); stroke-opacity: 1; stroke-width: 1px;"/><path class="xtick ticks crisp" d="M0,621v5M0,99v-5" transform="translate(513.45,0)" style="stroke: rgb(0, 0, 0); stroke-opacity: 1; stroke-width: 1px;"/><path class="xtick ticks crisp" d="M0,621v5M0,99v-5" transform="translate(561.8,0)" style="stroke: rgb(0, 0, 0); stroke-opacity: 1; stroke-width: 1px;"/><path class="xtick ticks crisp" d="M0,621v5M0,99v-5" transform="translate(610.15,0)" style="stroke: rgb(0, 0, 0); stroke-opacity: 1; stroke-width: 1px;"/><path class="xtick ticks crisp" d="M0,621v5M0,99v-5" transform="translate(674.05,0)" style="stroke: rgb(0, 0, 0); stroke-opacity: 1; stroke-width: 1px;"/><path class="xtick ticks crisp" d="M0,621v5M0,99v-5" transform="translate(722.4,0)" style="stroke: rgb(0, 0, 0); stroke-opacity: 1; stroke-width: 1px;"/><path class="xtick ticks crisp" d="M0,621v5M0,99v-5" transform="translate(770.75,0)" style="stroke: rgb(0, 0, 0); stroke-opacity: 1; stroke-width: 1px;"/><path class="xtick ticks crisp" d="M0,621v5M0,99v-5" transform="translate(834.65,0)" style="stroke: rgb(0, 0, 0); stroke-opacity: 1; stroke-width: 1px;"/><path class="xtick ticks crisp" d="M0,621v5M0,99v-5" transform="translate(883,0)" style="stroke: rgb(0, 0, 0); stroke-opacity: 1; stroke-width: 1px;"/><g class="xtick"><text text-anchor="middle" x="0" y="640.4" transform="translate(80,0)" style="font-family: sans-serif, 'Open Sans', verdana, arial; font-size: 12px; fill: rgb(0, 0, 0); fill-opacity: 1; white-space: pre; opacity: 1;">0.1</text></g><g class="xtick"><text text-anchor="middle" x="0" y="637.4" style="font-family: sans-serif, 'Open Sans', verdana, arial; font-size: 9px; fill: rgb(0, 0, 0); fill-opacity: 1; white-space: pre; opacity: 1;" transform="translate(128.35,0)">2</text></g><g class="xtick"><text text-anchor="middle" x="0" y="637.4" style="font-family: sans-serif, 'Open Sans', verdana, arial; font-size: 9px; fill: rgb(0, 0, 0); fill-opacity: 1; white-space: pre; opacity: 1;" transform="translate(192.25,0)">5</text></g><g class="xtick"><text text-anchor="middle" x="0" y="640.4" style="font-family: sans-serif, 'Open Sans', verdana, arial; font-size: 12px; fill: rgb(0, 0, 0); fill-opacity: 1; white-space: pre; opacity: 1;" transform="translate(240.6,0)">1</text></g><g class="xtick"><text text-anchor="middle" x="0" y="637.4" style="font-family: sans-serif, 'Open Sans', verdana, arial; font-size: 9px; fill: rgb(0, 0, 0); fill-opacity: 1; white-space: pre; opacity: 1;" transform="translate(288.95,0)">2</text></g><g class="xtick"><text text-anchor="middle" x="0" y="637.4" style="font-family: sans-serif, 'Open Sans', verdana, arial; font-size: 9px; fill: rgb(0, 0, 0); fill-opacity: 1; white-space: pre; opacity: 1;" transform="translate(352.85,0)">5</text></g><g class="xtick"><text text-anchor="middle" x="0" y="640.4" style="font-family: sans-serif, 'Open Sans', verdana, arial; font-size: 12px; fill: rgb(0, 0, 0); fill-opacity: 1; white-space: pre; opacity: 1;" transform="translate(401.2,0)">10</text></g><g class="xtick"><text text-anchor="middle" x="0" y="637.4" style="font-family: sans-serif, 'Open Sans', verdana, arial; font-size: 9px; fill: rgb(0, 0, 0); fill-opacity: 1; white-space: pre; opacity: 1;" transform="translate(449.55,0)">2</text></g><g class="xtick"><text text-anchor="middle" x="0" y="637.4" style="font-family: sans-serif, 'Open Sans', verdana, arial; font-size: 9px; fill: rgb(0, 0, 0); fill-opacity: 1; white-space: pre; opacity: 1;" transform="translate(513.45,0)">5</text></g><g class="xtick"><text text-anchor="middle" x="0" y="640.4" style="font-family: sans-serif, 'Open Sans', verdana, arial; font-size: 12px; fill: rgb(0, 0, 0); fill-opacity: 1; white-space: pre; opacity: 1;" transform="translate(561.8,0)">100</text></g><g class="xtick"><text text-anchor="middle" x="0" y="637.4" style="font-family: sans-serif, 'Open Sans', verdana, arial; font-size: 9px; fill: rgb(0, 0, 0); fill-opacity: 1; white-space: pre; opacity: 1;" transform="translate(610.15,0)">2</text></g><g class="xtick"><text text-anchor="middle" x="0" y="637.4" style="font-family: sans-serif, 'Open Sans', verdana, arial; font-size: 9px; fill: rgb(0, 0, 0); fill-opacity: 1; white-space: pre; opacity: 1;" transform="translate(674.05,0)">5</text></g><g class="xtick"><text text-anchor="middle" x="0" y="640.4" style="font-family: sans-serif, 'Open Sans', verdana, arial; font-size: 12px; fill: rgb(0, 0, 0); fill-opacity: 1; white-space: pre; opacity: 1;" transform="translate(722.4,0)">1000</text></g><g class="xtick"><text text-anchor="middle" x="0" y="637.4" style="font-family: sans-serif, 'Open Sans', verdana, arial; font-size: 9px; fill: rgb(0, 0, 0); fill-opacity: 1; white-space: pre; opacity: 1;" transform="translate(770.75,0)">2</text></g><g class="xtick"><text text-anchor="middle" x="0" y="637.4" style="font-family: sans-serif, 'Open Sans', verdana, arial; font-size: 9px; fill: rgb(0, 0, 0); fill-opacity: 1; white-space: pre; opacity: 1;" transform="translate(834.65,0)">5</text></g><g class="xtick"><text text-anchor="middle" x="0" y="640.4" style="font-family: sans-serif, 'Open Sans', verdana, arial; font-size: 12px; fill: rgb(0, 0, 0); fill-opacity: 1; white-space: pre; opacity: 1;" transform="translate(883,0)">10k</text></g></g><g class="yaxislayer-above"><path class="ytick ticks crisp" d="M79,0h-5M884,0h5" transform="translate(0,552.25)" style="stroke: rgb(0, 0, 0); stroke-opacity: 1; stroke-width: 1px;"/><path class="ytick ticks crisp" d="M79,0h-5M884,0h5" transform="translate(0,481.35)" style="stroke: rgb(0, 0, 0); stroke-opacity: 1; stroke-width: 1px;"/><path class="ytick ticks crisp" d="M79,0h-5M884,0h5" transform="translate(0,410.45)" style="stroke: rgb(0, 0, 0); stroke-opacity: 1; stroke-width: 1px;"/><path class="ytick ticks crisp" d="M79,0h-5M884,0h5" transform="translate(0,339.55)" style="stroke: rgb(0, 0, 0); stroke-opacity: 1; stroke-width: 1px;"/><path class="ytick ticks crisp" d="M79,0h-5M884,0h5" transform="translate(0,268.65)" style="stroke: rgb(0, 0, 0); stroke-opacity: 1; stroke-width: 1px;"/><path class="ytick ticks crisp" d="M79,0h-5M884,0h5" transform="translate(0,197.76)" style="stroke: rgb(0, 0, 0); stroke-opacity: 1; stroke-width: 1px;"/><path class="ytick ticks crisp" d="M79,0h-5M884,0h5" transform="translate(0,126.86)" style="stroke: rgb(0, 0, 0); stroke-opacity: 1; stroke-width: 1px;"/><g class="ytick"><text text-anchor="end" x="71.6" y="4.199999999999999" transform="translate(0,552.25)" style="font-family: sans-serif, 'Open Sans', verdana, arial; font-size: 12px; fill: rgb(0, 0, 0); fill-opacity: 1; white-space: pre; opacity: 1;">−7</text></g><g class="ytick"><text text-anchor="end" x="71.6" y="4.199999999999999" style="font-family: sans-serif, 'Open Sans', verdana, arial; font-size: 12px; fill: rgb(0, 0, 0); fill-opacity: 1; white-space: pre; opacity: 1;" transform="translate(0,481.35)">−6</text></g><g class="ytick"><text text-anchor="end" x="71.6" y="4.199999999999999" style="font-family: sans-serif, 'Open Sans', verdana, arial; font-size: 12px; fill: rgb(0, 0, 0); fill-opacity: 1; white-space: pre; opacity: 1;" transform="translate(0,410.45)">−5</text></g><g class="ytick"><text text-anchor="end" x="71.6" y="4.199999999999999" style="font-family: sans-serif, 'Open Sans', verdana, arial; font-size: 12px; fill: rgb(0, 0, 0); fill-opacity: 1; white-space: pre; opacity: 1;" transform="translate(0,339.55)">−4</text></g><g class="ytick"><text text-anchor="end" x="71.6" y="4.199999999999999" style="font-family: sans-serif, 'Open Sans', verdana, arial; font-size: 12px; fill: rgb(0, 0, 0); fill-opacity: 1; white-space: pre; opacity: 1;" transform="translate(0,268.65)">−3</text></g><g class="ytick"><text text-anchor="end" x="71.6" y="4.199999999999999" style="font-family: sans-serif, 'Open Sans', verdana, arial; font-size: 12px; fill: rgb(0, 0, 0); fill-opacity: 1; white-space: pre; opacity: 1;" transform="translate(0,197.76)">−2</text></g><g class="ytick"><text text-anchor="end" x="71.6" y="4.199999999999999" style="font-family: sans-serif, 'Open Sans', verdana, arial; font-size: 12px; fill: rgb(0, 0, 0); fill-opacity: 1; white-space: pre; opacity: 1;" transform="translate(0,126.86)">−1</text></g></g><g class="overaxes-above"/></g></g><g class="polarlayer"/><g class="smithlayer"/><g class="ternarylayer"/><g class="geolayer"/><g class="funnelarealayer"/><g class="pielayer"/><g class="iciclelayer"/><g class="treemaplayer"/><g class="sunburstlayer"/><g class="glimages"/><defs id="topdefs-ff3ac6"><g class="clips"/><clipPath id="legendff3ac6"><rect width="62" height="181" x="1" y="1"/></clipPath></defs><g class="layer-above"><g class="imagelayer"/><g class="shapelayer"/></g><g class="infolayer"><g class="legend" pointer-events="all" transform="translate(899.0600000000001,100)"><rect class="bg" shape-rendering="crispEdges" width="63" height="182" x="0.5" y="0.5" style="stroke: rgb(255, 255, 255); stroke-opacity: 0; fill: rgb(255, 255, 255); fill-opacity: 0; stroke-width: 1px;"/><g class="scrollbox" transform="" clip-path="url(#legendff3ac6)"><g class="groups" transform=""><g class="traces" transform="translate(1,15.5)" style="opacity: 1;"><text class="legendtext" text-anchor="start" x="40" y="4.680000000000001" style="font-family: sans-serif, 'Open Sans', verdana, arial; font-size: 12px; fill: rgb(0, 0, 0); fill-opacity: 1; white-space: pre;">Si</text><g class="layers" style="opacity: 1;"><g class="legendfill"/><g class="legendlines"><path class="js-line" d="M5,0h30" style="fill: none; stroke: rgb(59, 170, 38); stroke-opacity: 1; stroke-width: 4px;"/></g><g class="legendsymbols"><g class="legendpoints"/></g></g><rect class="legendtoggle" x="0" y="-9.5" width="56.671875" height="19" style="fill: rgb(0, 0, 0); fill-opacity: 0;"/></g><g class="traces" transform="translate(1,34.5)" style="opacity: 1;"><text class="legendtext" text-anchor="start" x="40" y="4.680000000000001" style="font-family: sans-serif, 'Open Sans', verdana, arial; font-size: 12px; fill: rgb(0, 0, 0); fill-opacity: 1; white-space: pre;">S</text><g class="layers" style="opacity: 1;"><g class="legendfill"/><g class="legendlines"><path class="js-line" d="M5,0h30" style="fill: none; stroke: rgb(203, 208, 47); stroke-opacity: 1; stroke-width: 4px;"/></g><g class="legendsymbols"><g class="legendpoints"/></g></g><rect class="legendtoggle" x="0" y="-9.5" width="56.671875" height="19" style="fill: rgb(0, 0, 0); fill-opacity: 0;"/></g><g class="traces" transform="translate(1,53.5)" style="opacity: 1;"><text class="legendtext" text-anchor="start" x="40" y="4.680000000000001" style="font-family: sans-serif, 'Open Sans', verdana, arial; font-size: 12px; fill: rgb(0, 0, 0); fill-opacity: 1; white-space: pre;">Na</text><g class="layers" style="opacity: 1;"><g class="legendfill"/><g class="legendlines"><path class="js-line" d="M5,0h30" style="fill: none; stroke: rgb(59, 124, 198); stroke-opacity: 1; stroke-width: 4px;"/></g><g class="legendsymbols"><g class="legendpoints"/></g></g><rect class="legendtoggle" x="0" y="-9.5" width="56.671875" height="19" style="fill: rgb(0, 0, 0); fill-opacity: 0;"/></g><g class="traces" transform="translate(1,72.5)" style="opacity: 1;"><text class="legendtext" text-anchor="start" x="40" y="4.680000000000001" style="font-family: sans-serif, 'Open Sans', verdana, arial; font-size: 12px; fill: rgb(0, 0, 0); fill-opacity: 1; white-space: pre;">Mg</text><g class="layers" style="opacity: 1;"><g class="legendfill"/><g class="legendlines"><path class="js-line" d="M5,0h30" style="fill: none; stroke: rgb(214, 77, 49); stroke-opacity: 1; stroke-width: 4px;"/></g><g class="legendsymbols"><g class="legendpoints"/></g></g><rect class="legendtoggle" x="0" y="-9.5" width="56.671875" height="19" style="fill: rgb(0, 0, 0); fill-opacity: 0;"/></g><g class="traces" transform="translate(1,91.5)" style="opacity: 1;"><text class="legendtext" text-anchor="start" x="40" y="4.680000000000001" style="font-family: sans-serif, 'Open Sans', verdana, arial; font-size: 12px; fill: rgb(0, 0, 0); fill-opacity: 1; white-space: pre;">K</text><g class="layers" style="opacity: 1;"><g class="legendfill"/><g class="legendlines"><path class="js-line" d="M5,0h30" style="fill: none; stroke: rgb(209, 91, 252); stroke-opacity: 1; stroke-width: 4px;"/></g><g class="legendsymbols"><g class="legendpoints"/></g></g><rect class="legendtoggle" x="0" y="-9.5" width="56.671875" height="19" style="fill: rgb(0, 0, 0); fill-opacity: 0;"/></g><g class="traces" transform="translate(1,110.5)" style="opacity: 1;"><text class="legendtext" text-anchor="start" x="40" y="4.680000000000001" style="font-family: sans-serif, 'Open Sans', verdana, arial; font-size: 12px; fill: rgb(0, 0, 0); fill-opacity: 1; white-space: pre;">Fe</text><g class="layers" style="opacity: 1;"><g class="legendfill"/><g class="legendlines"><path class="js-line" d="M5,0h30" style="fill: none; stroke: rgb(240, 85, 85); stroke-opacity: 1; stroke-width: 4px;"/></g><g class="legendsymbols"><g class="legendpoints"/></g></g><rect class="legendtoggle" x="0" y="-9.5" width="56.671875" height="19" style="fill: rgb(0, 0, 0); fill-opacity: 0;"/></g><g class="traces" transform="translate(1,129.5)" style="opacity: 1;"><text class="legendtext" text-anchor="start" x="40" y="4.680000000000001" style="font-family: sans-serif, 'Open Sans', verdana, arial; font-size: 12px; fill: rgb(0, 0, 0); fill-opacity: 1; white-space: pre;">Ca</text><g class="layers" style="opacity: 1;"><g class="legendfill"/><g class="legendlines"><path class="js-line" d="M5,0h30" style="fill: none; stroke: rgb(90, 111, 231); stroke-opacity: 1; stroke-width: 4px;"/></g><g class="legendsymbols"><g class="legendpoints"/></g></g><rect class="legendtoggle" x="0" y="-9.5" width="56.671875" height="19" style="fill: rgb(0, 0, 0); fill-opacity: 0;"/></g><g class="traces" transform="translate(1,148.5)" style="opacity: 1;"><text class="legendtext" text-anchor="start" x="40" y="4.680000000000001" style="font-family: sans-serif, 'Open Sans', verdana, arial; font-size: 12px; fill: rgb(0, 0, 0); fill-opacity: 1; white-space: pre;">C</text><g class="layers" style="opacity: 1;"><g class="legendfill"/><g class="legendlines"><path class="js-line" d="M5,0h30" style="fill: none; stroke: rgb(38, 98, 95); stroke-opacity: 1; stroke-width: 4px;"/></g><g class="legendsymbols"><g class="legendpoints"/></g></g><rect class="legendtoggle" x="0" y="-9.5" width="56.671875" height="19" style="fill: rgb(0, 0, 0); fill-opacity: 0;"/></g><g class="traces" transform="translate(1,167.5)" style="opacity: 1;"><text class="legendtext" text-anchor="start" x="40" y="4.680000000000001" style="font-family: sans-serif, 'Open Sans', verdana, arial; font-size: 12px; fill: rgb(0, 0, 0); fill-opacity: 1; white-space: pre;">Al</text><g class="layers" style="opacity: 1;"><g class="legendfill"/><g class="legendlines"><path class="js-line" d="M5,0h30" style="fill: none; stroke: rgb(67, 153, 251); stroke-opacity: 1; stroke-width: 4px;"/></g><g class="legendsymbols"><g class="legendpoints"/></g></g><rect class="legendtoggle" x="0" y="-9.5" width="56.671875" height="19" style="fill: rgb(0, 0, 0); fill-opacity: 0;"/></g></g></g><rect class="scrollbar" rx="20" ry="3" width="0" height="0" x="0" y="0" style="fill: rgb(128, 139, 164); fill-opacity: 1;"/></g><g class="g-gtitle"><text class="gtitle" x="481.5" y="50" text-anchor="middle" dy="0em" style="font-family: sans-serif, 'Open Sans', verdana, arial; font-size: 20px; fill: rgb(0, 0, 0); opacity: 1; font-weight: normal; white-space: pre;"><tspan style="font-weight:bold">PC hydration (mP&amp;K) logtime simulation</tspan></text></g><g class="g-xtitle"><text class="xtitle" x="481.5" y="670.500390625" text-anchor="middle" style="font-family: sans-serif, 'Open Sans', verdana, arial; font-size: 18px; fill: rgb(0, 0, 0); opacity: 1; font-weight: normal; white-space: pre;">log10(Time) [ hours ]</text></g><g class="g-ytitle"><text class="ytitle" transform="rotate(-90,30.812109375,360)" x="30.812109375" y="360" text-anchor="middle" style="font-family: sans-serif, 'Open Sans', verdana, arial; font-size: 18px; fill: rgb(0, 0, 0); opacity: 1; font-weight: normal; white-space: pre;">Stacked Concentration [ lg(mol/kgw) ]</text></g></g></svg>